<svg xmlns="http://www.w3.org/2000/svg" xmlns:xlink="http://www.w3.org/1999/xlink" width="700" height="500" viewBox="0 0 700 500"><defs><clipPath id="a"><rect width="120.949" height="120.948" rx="9.755" fill="#263238" stroke="#263238" stroke-linecap="round" stroke-linejoin="round" stroke-width="0.75"/></clipPath><clipPath id="b"><rect width="6.663" height="6.663" rx="2.086" fill="#92e3a9" stroke="#263238" stroke-linecap="round" stroke-linejoin="round" stroke-width="0.75"/></clipPath><clipPath id="d"><path d="M495.645,317.241s-1.448-24.637-4.294-48.347c-1.708-14.227-4.564-28.321-5.218-38.851-.855-13.777,15.965-9.948,30.609-10.561s28.872-2.512,29.888,10.293,2.413,86.654,2.413,86.654S521.3,323.869,495.645,317.241Z" transform="translate(-486.102 -219.014)" fill="#92e3a9" stroke="#263238" stroke-linecap="round" stroke-linejoin="round" stroke-width="0.75"/></clipPath><clipPath id="e"><path d="M567.174,219.086s14.264.847,14.182,5.233c0,0,7.141,3.041,7.523,6.477s30.509,35.713,25.286,45.086c-4.56,8.183-22.965,23.4-22.965,23.4s-1.759-3.952-3.746-8.567c0,0,8.074-17.612,11.767-19.421l-19.382-24.616" transform="translate(-567.174 -219.086)" fill="#92e3a9" stroke="#263238" stroke-linecap="round" stroke-linejoin="round" stroke-width="0.75"/></clipPath><clipPath id="f"><path d="M464.281,221.7s-5.4-.228-8.842,9.483c0,0-4.068,2.376-12.346,20.443,0,0-1.425-1.907-4.484-7.132-2.67-4.561-6.748-10.457-10.116-19.081,0,0-2.71,3.337-8.515,3.144,0,0,12.58,42.491,21.388,42.491,9.711,0,20.407-22.584,20.407-22.584" transform="translate(-419.978 -221.697)" fill="#92e3a9"/></clipPath><clipPath id="g"><path d="M532.953,192.835s1.477,14.675,4.752,16.443c0,0-.523,5.608-10.085,5.608s-9.563-7.9-9.563-7.9Z" transform="translate(-518.057 -192.835)" fill="#fff" stroke="#263238" stroke-linecap="round" stroke-linejoin="round" stroke-width="0.75"/></clipPath><clipPath id="h"><path d="M499.01,154.029s-8.7-.839-6.794-7.862,9.177-7.786,9.177-7.786-1.467,5.038,7.159,4.046,17.938-1.832,18.32,6.868a18.35,18.35,0,0,1-2.29,16.413c-5.649,8.092-10.84,1.539-10.84,1.539l-4.5-9.631-8.3-1.756Z" transform="translate(-491.942 -138.381)" fill="#263238" stroke="#263238" stroke-miterlimit="10" stroke-width="0.75"/></clipPath><clipPath id="i"><path d="M453.081,310.169s-4.8-3.05-11.652-.572a150.379,150.379,0,0,0-17.722,2s.778-2.055-2-1.587c0,0-1.035-21.435-4.569-28.669,0,0-.419,2.068-12.74,2.579,0,0-.876,38.331,3.629,43.951s42.279,1.258,42.279,1.258S457.039,316.732,453.081,310.169Z" transform="translate(-404.325 -281.34)" fill="#263238" stroke="#263238" stroke-linecap="round" stroke-linejoin="round" stroke-width="0.75"/></clipPath><clipPath id="j"><path d="M480.369,395.445s1.119-21.733,0-38.353-9.748-22.532,0-27.486,41.868-3.676,51.936,1.278,3.676,27.806,4.155,37.873,2.237,26.687,2.237,26.687Z" transform="translate(-475.777 -326.469)" fill="#263238" stroke="#263238" stroke-linecap="round" stroke-linejoin="round" stroke-width="0.75"/></clipPath><clipPath id="k"><path d="M502.517,323.242s7.351,16.578,10.334,16.087,5.114-7.3,8.1-10.681,3.278-6.375,3.077-8.234l-.839-8.465-6.712-.745-9.588,7.031Z" transform="translate(-502.517 -311.204)" fill="#fff" stroke="#263238" stroke-linecap="round" stroke-linejoin="round" stroke-width="0.75"/></clipPath><clipPath id="l"><rect width="72.8" height="10.453" rx="4.417" fill="#92e3a9" stroke="#263238" stroke-linecap="round" stroke-linejoin="round" stroke-width="0.75"/></clipPath><clipPath id="m"><path d="M74.38,234.085s-5.913,2.923-7.255,8.8c0,0-1.678-1.678-2.349,5.537,0,0-14.933,27.686-15.1,39.6S77.7,319.226,77.7,319.226s3.021-4.027,2.349-7.719c0,0-10.907-20.639-16.444-23.155,0,0,6.208-15.1,10.4-17.954S74.38,234.085,74.38,234.085Z" transform="translate(-49.674 -234.085)" fill="#263238" stroke="#263238" stroke-linecap="round" stroke-linejoin="round" stroke-width="0.75"/></clipPath><clipPath id="n"><path d="M91.529,320.615s-.336-12.081-2.014-30.874-11.075-56.378,2.014-59.734,39.2-5.464,47.989,3.021c9.732,9.4,2.349,61.748,2.014,70.808a116.772,116.772,0,0,0,1.342,19.464S108.14,330.851,91.529,320.615Z" transform="translate(-84.682 -227.071)" fill="#263238" stroke="#263238" stroke-linecap="round" stroke-linejoin="round" stroke-width="0.75"/></clipPath><clipPath id="o"><path d="M158.857,216.77s12.391.051,17.112,3.911c0,0,.024-2.014,3.715,0,0,0,11.242-1.342,16.444,0,0,0,6.376-15.772,10.235-19.968,0,0,5.537.336,7.047,2.853.718,1.2-.979,7.775-2.56,14.475-1.745,7.4-3.494,14.943-4.991,15.559-2.852,1.175-32.887,3.859-32.887,3.859l-14.115-7.383Z" transform="translate(-158.857 -200.713)" fill="#263238" stroke="#263238" stroke-linecap="round" stroke-linejoin="round" stroke-width="0.75"/></clipPath><clipPath id="p"><path d="M192.036,338.184s20.093.511,22.982,2.636c0,0-1.808-2.908,1.436-1.957,0,0,.224-24.666,4.586-25l1.452-5.614a.644.644,0,0,1,.96-.392,13.064,13.064,0,0,0,6.023,2.118.638.638,0,0,1,.626.644v4.811s2.237.559,2.125,3.8-2.157,32.344-5.849,35.492-29.643,1.583-29.643,1.583S190.358,350.153,192.036,338.184Z" transform="translate(-191.755 -307.76)" fill="#92e3a9" stroke="#263238" stroke-linecap="round" stroke-linejoin="round" stroke-width="0.75"/></clipPath><clipPath id="q"><path d="M123.048,408.7s-15.554-32.813-3.623-43.253,37.075-7.67,41.336-6.392,8.523,13.637,8.736,20.242,4.4,6.514-1.564,29.4Z" transform="translate(-114.923 -357.745)" fill="#92e3a9" stroke="#263238" stroke-linecap="round" stroke-linejoin="round" stroke-width="0.75"/></clipPath><clipPath id="r"><path d="M160.964,336.4l-3.09,9.055s6.605,7.031,12.358,7.564l2.344,2.755,2.557-3.075-.639-3.942-1.033-1.665-.885-.288,1.811-4.972-5.784-7.884h-5.616Z" transform="translate(-157.874 -333.947)" fill="#fff" stroke="#263238" stroke-linecap="round" stroke-linejoin="round" stroke-width="0.75"/></clipPath><clipPath id="s"><rect width="72.8" height="10.453" rx="4.417" fill="#fff" stroke="#263238" stroke-linecap="round" stroke-linejoin="round" stroke-width="0.75"/></clipPath><clipPath id="u"><rect width="700" height="500"/></clipPath></defs><g id="t" clip-path="url(#u)"><rect width="700" height="500" fill="#fff"/><g transform="translate(285.383 19.151)"><g transform="translate(49.674 16.925)"><g transform="translate(11.731 1.217)"><path d="M336.5,265.128c19.062-36.691,59.464-120.7,42.208-148.095-16.8-26.665-41.966-9.915-73.358-26.217s-13.786-70.99-68.984-71.774c-54.2-.77-61.345,89.113-82.654,97.991S81.986,90.066,71.126,141.707c-8.449,40.176,34.337,99.193,53.754,123.421Z" transform="translate(-70.035 -19.037)" fill="#92e3a9"/><path d="M336.5,265.128c19.062-36.691,59.464-120.7,42.208-148.095-16.8-26.665-41.966-9.915-73.358-26.217s-13.786-70.99-68.984-71.774c-54.2-.77-61.345,89.113-82.654,97.991S81.986,90.066,71.126,141.707c-8.449,40.176,34.337,99.193,53.754,123.421Z" transform="translate(-70.035 -19.037)" fill="#fff" opacity="0.7"/></g><g transform="translate(15.683 247.308)"><path d="M376.4,446.194H82.061c-3.764,1.685-6.86,3.8-4.12,5.486,5.458,3.365,41.723-2.243,33.5,11.214s82.235-2.99,91.954-2.617,16.821,7.919,31.774,7.919,16.173-9.662,25.842-9.662,78.354,11.714,107.559,0C381.455,453.365,380.968,449.216,376.4,446.194Z" transform="translate(-76.895 -446.194)" fill="#858585"/><path d="M376.4,446.194H82.061c-3.764,1.685-6.86,3.8-4.12,5.486,5.458,3.365,41.723-2.243,33.5,11.214s82.235-2.99,91.954-2.617,16.821,7.919,31.774,7.919,16.173-9.662,25.842-9.662,78.354,11.714,107.559,0C381.455,453.365,380.968,449.216,376.4,446.194Z" transform="translate(-76.895 -446.194)" fill="#fff" opacity="0.6"/></g><g transform="translate(12.842 247.307)"><line x2="304.477" fill="#263238" stroke="#263238" stroke-linecap="round" stroke-linejoin="round" stroke-width="0.75"/></g><g transform="translate(58.504)"><g transform="translate(139.196)"><path d="M426.822,84.706h18.13" transform="translate(-407.242 -45.656)" fill="none" stroke="#263238" stroke-linecap="round" stroke-linejoin="round" stroke-width="0.75"/><path d="M421.09,84.706h1.62" transform="translate(-404.812 -45.656)" fill="none" stroke="#263238" stroke-linecap="round" stroke-linejoin="round" stroke-width="0.75"/><path d="M406.537,37.142a13.7,13.7,0,0,0,0,27.4" transform="translate(-392.836 -25.495)" fill="none" stroke="#263238" stroke-linecap="round" stroke-linejoin="round" stroke-width="0.75"/><path d="M435.616,16.925a13.7,13.7,0,0,0-13.588,12.017" transform="translate(-405.21 -16.925)" fill="none" stroke="#263238" stroke-linecap="round" stroke-linejoin="round" stroke-width="0.75"/><path d="M460.973,56.278a12.109,12.109,0,0,0,.748-24.2c.032-.381.058-.764.058-1.153a13.707,13.707,0,0,0-10.352-13.289" transform="translate(-417.672 -17.229)" fill="none" stroke="#263238" stroke-linecap="round" stroke-linejoin="round" stroke-width="0.75"/><g transform="translate(49.159 40.453)"><path d="M504.521,102.92a9.025,9.025,0,0,0,.8-1.385l1.79.03a10.623,10.623,0,0,0,.583-2.174l-1.567-.871c.023-.263.037-.529.037-.8s-.014-.536-.037-.8l1.567-.871a10.623,10.623,0,0,0-.583-2.174l-1.79.03a9.052,9.052,0,0,0-.8-1.385l.921-1.535A10.773,10.773,0,0,0,503.85,89.4l-1.535.921a9.022,9.022,0,0,0-1.385-.8l.03-1.79a10.622,10.622,0,0,0-2.174-.583l-.871,1.568" transform="translate(-486.536 -87.142)" fill="none" stroke="#263238" stroke-linecap="round" stroke-linejoin="round" stroke-width="0.75"/><path d="M482.527,113.243c.145.255.3.5.47.741l-.921,1.535a10.772,10.772,0,0,0,1.592,1.592l1.535-.921a9.024,9.024,0,0,0,1.385.8l-.03,1.79a10.622,10.622,0,0,0,2.174.583l.871-1.567c.263.023.53.037.8.037s.536-.014.8-.037l.87,1.567a10.622,10.622,0,0,0,2.174-.583l-.03-1.79a9.021,9.021,0,0,0,1.385-.8l1.535.921a10.772,10.772,0,0,0,1.592-1.592" transform="translate(-479.822 -98.206)" fill="none" stroke="#263238" stroke-linecap="round" stroke-linejoin="round" stroke-width="0.75"/><path d="M479.452,98.846l-.705-.012a10.623,10.623,0,0,0-.583,2.174l1.568.87c-.024.263-.037.53-.037.8s.014.536.037.8l-1.568.87a10.623,10.623,0,0,0,.583,2.174l1.79-.03" transform="translate(-478.164 -92.098)" fill="none" stroke="#263238" stroke-linecap="round" stroke-linejoin="round" stroke-width="0.75"/><path d="M489.6,88.71l-.871-1.568a10.622,10.622,0,0,0-2.174.583l.03,1.79a9.023,9.023,0,0,0-1.385.8l-1.535-.921a10.772,10.772,0,0,0-1.592,1.592L483,92.523a9.042,9.042,0,0,0-.8,1.385" transform="translate(-479.822 -87.142)" fill="none" stroke="#263238" stroke-linecap="round" stroke-linejoin="round" stroke-width="0.75"/><path d="M491.062,106.928a5.832,5.832,0,0,1,1.175-11.544" transform="translate(-481.658 -90.636)" fill="none" stroke="#263238" stroke-linecap="round" stroke-linejoin="round" stroke-width="0.75"/><path d="M502.2,107.877a5.834,5.834,0,0,1-5.67,4.465" transform="translate(-485.948 -95.931)" fill="none" stroke="#263238" stroke-linecap="round" stroke-linejoin="round" stroke-width="0.75"/><path d="M506.574,106.388c-.011.138-.029.275-.05.41" transform="translate(-490.185 -95.3)" fill="none" stroke="#263238" stroke-linecap="round" stroke-linejoin="round" stroke-width="0.75"/><path d="M500.221,96.079a5.833,5.833,0,0,1,3.7,5.431" transform="translate(-487.514 -90.93)" fill="none" stroke="#263238" stroke-linecap="round" stroke-linejoin="round" stroke-width="0.75"/></g><g transform="translate(65.484 29.811)"><path d="M521.083,77.4a4.979,4.979,0,0,0,.443-.766l.99.016a5.868,5.868,0,0,0,.323-1.2l-.867-.482c.013-.146.021-.293.021-.442s-.008-.3-.021-.442l.867-.482a5.868,5.868,0,0,0-.323-1.2l-.99.016a4.953,4.953,0,0,0-.443-.766l.509-.849a5.957,5.957,0,0,0-.881-.881l-.849.509a4.982,4.982,0,0,0-.766-.443l.016-.99a5.861,5.861,0,0,0-1.2-.323l-.482.867" transform="translate(-511.133 -68.67)" fill="none" stroke="#263238" stroke-linecap="round" stroke-linejoin="round" stroke-width="0.75"/><path d="M508.914,83.11q.12.212.26.41l-.509.849a5.948,5.948,0,0,0,.881.881l.849-.509a5.029,5.029,0,0,0,.766.443l-.016.99a5.862,5.862,0,0,0,1.2.323l.482-.867c.146.013.293.021.442.021s.3-.008.443-.021l.482.867a5.863,5.863,0,0,0,1.2-.323l-.016-.99a5.03,5.03,0,0,0,.766-.443l.849.509a5.95,5.95,0,0,0,.881-.881" transform="translate(-507.418 -74.791)" fill="none" stroke="#263238" stroke-linecap="round" stroke-linejoin="round" stroke-width="0.75"/><path d="M507.214,75.145l-.39-.006a5.861,5.861,0,0,0-.323,1.2l.867.482c-.013.146-.021.293-.021.442s.008.3.021.442l-.867.482a5.86,5.86,0,0,0,.323,1.2l.99-.016" transform="translate(-506.501 -71.412)" fill="none" stroke="#263238" stroke-linecap="round" stroke-linejoin="round" stroke-width="0.75"/><path d="M512.829,69.537l-.482-.867a5.862,5.862,0,0,0-1.2.323l.016.99a4.981,4.981,0,0,0-.766.443l-.849-.509a5.949,5.949,0,0,0-.881.881l.509.849a4.952,4.952,0,0,0-.443.766" transform="translate(-507.418 -68.67)" fill="none" stroke="#263238" stroke-linecap="round" stroke-linejoin="round" stroke-width="0.75"/></g></g><g transform="translate(0 9.906)"><g transform="translate(40.127)"><path d="M245.783,83.8h13.288" transform="translate(-231.433 -55.178)" fill="none" stroke="#263238" stroke-linecap="round" stroke-linejoin="round" stroke-width="0.75"/><path d="M241.583,83.8h1.187" transform="translate(-229.652 -55.178)" fill="none" stroke="#263238" stroke-linecap="round" stroke-linejoin="round" stroke-width="0.75"/><path d="M230.916,48.938a10.042,10.042,0,1,0,0,20.084" transform="translate(-220.874 -40.401)" fill="none" stroke="#263238" stroke-linecap="round" stroke-linejoin="round" stroke-width="0.75"/><path d="M252.229,34.12a10.038,10.038,0,0,0-9.959,8.808" transform="translate(-229.943 -34.12)" fill="none" stroke="#263238" stroke-linecap="round" stroke-linejoin="round" stroke-width="0.75"/><path d="M270.813,62.963a8.875,8.875,0,0,0,.548-17.733c.024-.279.043-.56.043-.845a10.046,10.046,0,0,0-7.587-9.74" transform="translate(-239.077 -34.343)" fill="none" stroke="#263238" stroke-linecap="round" stroke-linejoin="round" stroke-width="0.75"/></g><g transform="translate(18.985 29.866)"><path d="M212.23,102.755a9.614,9.614,0,0,0,.853-1.474l1.905.031A11.285,11.285,0,0,0,215.609,99l-1.668-.927c.025-.28.04-.563.04-.851s-.015-.57-.04-.851l1.668-.926a11.3,11.3,0,0,0-.621-2.314l-1.905.032a9.613,9.613,0,0,0-.853-1.474l.98-1.634a11.434,11.434,0,0,0-1.694-1.694l-1.634.98a9.643,9.643,0,0,0-1.474-.853l.032-1.905a11.294,11.294,0,0,0-2.313-.62l-.927,1.668" transform="translate(-193.087 -85.961)" fill="none" stroke="#263238" stroke-linecap="round" stroke-linejoin="round" stroke-width="0.75"/><path d="M188.82,113.743q.232.407.5.789l-.98,1.634a11.458,11.458,0,0,0,1.694,1.694l1.635-.98a9.61,9.61,0,0,0,1.474.853l-.032,1.905a11.332,11.332,0,0,0,2.313.62l.927-1.668c.281.025.564.04.851.04s.57-.015.851-.04l.927,1.668a11.332,11.332,0,0,0,2.313-.62l-.032-1.905a9.642,9.642,0,0,0,1.474-.853l1.634.98a11.49,11.49,0,0,0,1.694-1.694" transform="translate(-185.941 -97.737)" fill="none" stroke="#263238" stroke-linecap="round" stroke-linejoin="round" stroke-width="0.75"/><path d="M185.547,98.419l-.751-.013a11.3,11.3,0,0,0-.62,2.314l1.668.926c-.024.281-.039.564-.039.851s.015.571.039.851l-1.668.927a11.284,11.284,0,0,0,.62,2.313l1.905-.031" transform="translate(-184.176 -91.236)" fill="none" stroke="#263238" stroke-linecap="round" stroke-linejoin="round" stroke-width="0.75"/><path d="M196.351,87.629l-.927-1.668a11.3,11.3,0,0,0-2.313.62l.032,1.905a9.61,9.61,0,0,0-1.474.853l-1.635-.98a11.4,11.4,0,0,0-1.694,1.694l.98,1.634a9.616,9.616,0,0,0-.853,1.474" transform="translate(-185.941 -85.961)" fill="none" stroke="#263238" stroke-linecap="round" stroke-linejoin="round" stroke-width="0.75"/><path d="M197.9,107.021a6.207,6.207,0,0,1,1.251-12.287" transform="translate(-187.894 -89.68)" fill="none" stroke="#263238" stroke-linecap="round" stroke-linejoin="round" stroke-width="0.75"/><path d="M209.758,108.032a6.21,6.21,0,0,1-6.036,4.752" transform="translate(-192.461 -95.317)" fill="none" stroke="#263238" stroke-linecap="round" stroke-linejoin="round" stroke-width="0.75"/><path d="M214.417,106.446c-.013.147-.031.293-.054.437" transform="translate(-196.972 -94.644)" fill="none" stroke="#263238" stroke-linecap="round" stroke-linejoin="round" stroke-width="0.75"/><path d="M207.654,95.474a6.208,6.208,0,0,1,3.942,5.78" transform="translate(-194.128 -89.993)" fill="none" stroke="#263238" stroke-linecap="round" stroke-linejoin="round" stroke-width="0.75"/></g><g transform="translate(0 27.974)"><path d="M172.3,95.295a7.18,7.18,0,0,0,.641-1.107l1.432.024a8.513,8.513,0,0,0,.466-1.738l-1.253-.7c.018-.211.029-.424.029-.639s-.011-.429-.029-.639l1.253-.7a8.513,8.513,0,0,0-.466-1.738l-1.432.024a7.186,7.186,0,0,0-.641-1.108l.736-1.228a8.582,8.582,0,0,0-1.273-1.273l-1.228.736a7.185,7.185,0,0,0-1.108-.641l.024-1.432a8.492,8.492,0,0,0-1.738-.467l-.7,1.254" transform="translate(-157.919 -82.676)" fill="none" stroke="#263238" stroke-linecap="round" stroke-linejoin="round" stroke-width="0.75"/><path d="M154.712,103.551q.174.306.376.592l-.737,1.228a8.632,8.632,0,0,0,1.273,1.273l1.228-.736a7.23,7.23,0,0,0,1.107.641l-.024,1.432a8.5,8.5,0,0,0,1.738.466l.7-1.254c.211.018.424.03.639.03s.429-.012.639-.03l.7,1.254a8.492,8.492,0,0,0,1.738-.466l-.024-1.432a7.237,7.237,0,0,0,1.108-.641l1.228.736a8.605,8.605,0,0,0,1.273-1.273" transform="translate(-152.549 -91.525)" fill="none" stroke="#263238" stroke-linecap="round" stroke-linejoin="round" stroke-width="0.75"/><path d="M152.253,92.037l-.564-.01a8.513,8.513,0,0,0-.466,1.738l1.254.7c-.018.211-.03.423-.03.639s.012.429.03.639l-1.254.7a8.513,8.513,0,0,0,.466,1.738l1.432-.024" transform="translate(-151.223 -86.64)" fill="none" stroke="#263238" stroke-linecap="round" stroke-linejoin="round" stroke-width="0.75"/><path d="M160.37,83.93l-.7-1.254a8.5,8.5,0,0,0-1.738.467l.024,1.432a7.179,7.179,0,0,0-1.107.641l-1.228-.736a8.609,8.609,0,0,0-1.273,1.273l.737,1.228a7.236,7.236,0,0,0-.641,1.108" transform="translate(-152.549 -82.676)" fill="none" stroke="#263238" stroke-linecap="round" stroke-linejoin="round" stroke-width="0.75"/><path d="M162.926,98.139a3.183,3.183,0,0,1,.641-6.3" transform="translate(-155.107 -86.56)" fill="none" stroke="#263238" stroke-linecap="round" stroke-linejoin="round" stroke-width="0.75"/><path d="M169,98.657a3.184,3.184,0,0,1-3.095,2.437" transform="translate(-157.448 -89.45)" fill="none" stroke="#263238" stroke-linecap="round" stroke-linejoin="round" stroke-width="0.75"/><path d="M167.925,92.218a3.184,3.184,0,0,1,2.022,2.964" transform="translate(-158.303 -86.721)" fill="none" stroke="#263238" stroke-linecap="round" stroke-linejoin="round" stroke-width="0.75"/></g></g></g><g transform="translate(153.749 182.125)"><path d="M335.784,376.62s-18.879-10.914-16.362-13.952,11.17,5.457,11.17,5.457-16.677-20.923-13.687-23.048S328.39,356.8,328.39,356.8s-10.227-23.076-6.293-23.731,10.227,19.955,10.227,19.955-2.675-14.632,0-14.946,4.562,23.18,4.562,23.18-.133-11.054,2.215-10.981S342.392,375.047,335.784,376.62Z" transform="translate(-316.546 -333.052)" fill="#92e3a9"/><path d="M335.784,376.62s-18.879-10.914-16.362-13.952,11.17,5.457,11.17,5.457-16.677-20.923-13.687-23.048S328.39,356.8,328.39,356.8s-10.227-23.076-6.293-23.731,10.227,19.955,10.227,19.955-2.675-14.632,0-14.946,4.562,23.18,4.562,23.18-.133-11.054,2.215-10.981S342.392,375.047,335.784,376.62Z" transform="translate(-316.546 -333.052)" fill="#fff" opacity="0.4"/><g transform="translate(18.175 8.145)"><path d="M352.116,381.7s14.952-8.644,12.959-11.05-8.847,4.322-8.847,4.322,13.207-16.571,10.84-18.254-9.1,9.282-9.1,9.282,8.1-18.276,4.984-18.795-8.1,15.8-8.1,15.8,2.118-11.588,0-11.837-3.613,18.358-3.613,18.358.1-8.755-1.754-8.7S346.883,380.45,352.116,381.7Z" transform="translate(-348.095 -347.189)" fill="#92e3a9"/><path d="M352.116,381.7s14.952-8.644,12.959-11.05-8.847,4.322-8.847,4.322,13.207-16.571,10.84-18.254-9.1,9.282-9.1,9.282,8.1-18.276,4.984-18.795-8.1,15.8-8.1,15.8,2.118-11.588,0-11.837-3.613,18.358-3.613,18.358.1-8.755-1.754-8.7S346.883,380.45,352.116,381.7Z" transform="translate(-348.095 -347.189)" opacity="0.2"/></g><path d="M327.09,401.981v1.157a2.25,2.25,0,0,0,1.6,2.15l1.708,18.141a4.651,4.651,0,0,0,4.631,4.216h12.64a4.652,4.652,0,0,0,4.631-4.216l1.707-18.141a2.249,2.249,0,0,0,1.6-2.15v-1.157Z" transform="translate(-321.016 -362.27)" fill="#263238"/><path d="M330.371,411.125a1.875,1.875,0,0,0,1.6-.523l1.487-1.5a1.873,1.873,0,0,1,2.639,0l1.488,1.5a1.872,1.872,0,0,0,2.639,0l1.5-1.5a1.864,1.864,0,0,1,2.631,0l1.5,1.5a1.863,1.863,0,0,0,2.632,0l1.5-1.5a1.873,1.873,0,0,1,2.639,0l1.488,1.5a1.776,1.776,0,0,0,1.017.516" transform="translate(-322.406 -365.06)" fill="none" stroke="#7f7f7f" stroke-linecap="round" stroke-linejoin="round" stroke-width="0.75"/></g><g transform="translate(108.232 55.518)"><rect width="120.949" height="120.948" rx="9.755" fill="#263238"/><g clip-path="url(#a)"><rect width="120.949" height="120.948" rx="9.755" fill="#fff" opacity="0.8"/></g><rect width="120.949" height="120.948" rx="9.755" fill="none" stroke="#263238" stroke-linecap="round" stroke-linejoin="round" stroke-width="0.75"/><g transform="translate(3.024 14.529)"><rect width="114.901" height="103.395" rx="9.755" fill="#263238"/><rect width="114.901" height="103.395" rx="9.755" fill="none" stroke="#263238" stroke-linecap="round" stroke-linejoin="round" stroke-width="0.75"/></g><g transform="translate(111.261 4.614)"><rect width="6.663" height="6.663" rx="2.086" fill="#92e3a9"/><g clip-path="url(#b)"><rect width="6.663" height="6.663" rx="2.086" opacity="0.3"/></g><rect width="6.663" height="6.663" rx="2.086" fill="none" stroke="#263238" stroke-linecap="round" stroke-linejoin="round" stroke-width="0.75"/></g><rect width="6.663" height="6.663" rx="2.086" transform="translate(103.053 4.614)" fill="#92e3a9" stroke="#263238" stroke-linecap="round" stroke-linejoin="round" stroke-width="0.75"/><g transform="translate(94.845 4.614)"><rect width="6.663" height="6.663" rx="2.086" fill="#92e3a9"/><g clip-path="url(#b)"><rect width="6.663" height="6.663" rx="2.086" fill="#fff" opacity="0.7"/></g><rect width="6.663" height="6.663" rx="2.086" fill="none" stroke="#263238" stroke-linecap="round" stroke-linejoin="round" stroke-width="0.75"/></g><g transform="translate(3.277 4.977)"><path d="M243.227,126.1v-2.821a1.282,1.282,0,1,1,2.56,0V126.1a1.282,1.282,0,1,1-2.56,0Zm1.717.054v-2.928c0-.383-.169-.529-.437-.529s-.437.146-.437.529v2.928c0,.383.169.529.437.529S244.944,126.537,244.944,126.154Z" transform="translate(-243.227 -121.93)" fill="#263238"/><path d="M248.659,122.063H249.9c.843,0,1.257.467,1.257,1.326v.529c0,.859-.414,1.327-1.257,1.327h-.4v2.185h-.843Zm1.242,2.415c.268,0,.414-.123.414-.506v-.636c0-.383-.146-.506-.414-.506h-.4v1.649Z" transform="translate(-245.53 -121.986)" fill="#263238"/><path d="M253.8,122.063h2.3v.766h-1.456v1.418H255.8v.767h-1.157v1.648H256.1v.767h-2.3Z" transform="translate(-247.708 -121.986)" fill="#263238"/><path d="M258.631,122.063h1.058l.82,3.212h.016v-3.212h.751v5.366h-.866l-1.012-3.918h-.016v3.918h-.751Z" transform="translate(-249.757 -121.986)" fill="#263238"/><path d="M266.194,126.1v-.306h.8v.368c0,.383.168.521.437.521s.437-.138.437-.537c0-.445-.169-.729-.721-1.211a2.08,2.08,0,0,1-.936-1.672,1.173,1.173,0,0,1,1.258-1.334c.82,0,1.227.49,1.227,1.349v.222h-.8v-.276c0-.383-.153-.529-.422-.529s-.422.146-.422.514c0,.391.176.675.728,1.158a2.073,2.073,0,0,1,.928,1.717,1.191,1.191,0,0,1-1.273,1.365C266.608,127.45,266.194,126.959,266.194,126.1Z" transform="translate(-252.962 -121.93)" fill="#263238"/><path d="M271.293,126.1v-2.821a1.282,1.282,0,1,1,2.56,0V126.1a1.282,1.282,0,1,1-2.56,0Zm1.717.054v-2.928c0-.383-.169-.529-.437-.529s-.437.146-.437.529v2.928c0,.383.169.529.437.529S273.01,126.537,273.01,126.154Z" transform="translate(-255.124 -121.93)" fill="#263238"/><path d="M276.672,126.156v-4.093h.843v4.156c0,.383.161.521.429.521s.429-.138.429-.521v-4.156h.812v4.093c0,.859-.429,1.35-1.257,1.35S276.672,127.015,276.672,126.156Z" transform="translate(-257.404 -121.986)" fill="#263238"/><path d="M282.077,122.063h1.25c.874,0,1.25.406,1.25,1.234v.33c0,.552-.176.905-.552,1.058v.016c.422.13.559.528.559,1.134v.943a1.584,1.584,0,0,0,.092.652h-.858a1.645,1.645,0,0,1-.077-.659v-.982c0-.5-.146-.659-.529-.659h-.291v2.3h-.843Zm1.15,2.3c.314,0,.506-.139.506-.567v-.414c0-.384-.13-.552-.429-.552h-.383v1.534Z" transform="translate(-259.695 -121.986)" fill="#263238"/><path d="M287.349,126.131v-2.882a1.244,1.244,0,1,1,2.484,0v.567h-.8V123.2c0-.353-.169-.5-.422-.5s-.422.146-.422.5v3c0,.353.169.491.422.491s.422-.138.422-.491v-.82h.8v.759a1.244,1.244,0,1,1-2.484,0Z" transform="translate(-261.93 -121.93)" fill="#263238"/><path d="M292.542,122.063h2.3v.766h-1.457v1.418h1.158v.767h-1.158v1.648h1.457v.767h-2.3Z" transform="translate(-264.131 -121.986)" fill="#263238"/></g></g><g transform="translate(127.554 69.972)"><g transform="translate(5.014)"><g transform="translate(67.073)"><path d="M499.445,383.263s.961,6.332.733,8.437c-.763,7.069-4.385,14.082-5.918,27.817h58.864s.533-25.05-1.779-36.254Z" transform="translate(-437.767 -242.183)" fill="#858585" stroke="#263238" stroke-linecap="round" stroke-linejoin="round" stroke-width="1"/><g transform="translate(51.792 46.454)"><path d="M495.645,317.241s-1.448-24.637-4.294-48.347c-1.708-14.227-4.564-28.321-5.218-38.851-.855-13.777,15.965-9.948,30.609-10.561s28.872-2.512,29.888,10.293,2.413,86.654,2.413,86.654S521.3,323.869,495.645,317.241Z" transform="translate(-486.102 -219.014)" fill="#92e3a9"/><g clip-path="url(#d)"><g transform="translate(-21.423 13.728)" opacity="0.2"><path d="M475.4,248.226a48.228,48.228,0,0,1-16.273,20.251l1.373,3.144a2.991,2.991,0,0,1-4.654-1.962l-1.651,8.49-5.277-.166c2.581,2.62,7.117,2.224,10.159.157s4.964-5.371,6.861-8.522,4-6.388,7.224-8.162l11.62,54.556c.625,2.935,1.292,5.966,3.055,8.4,3.656,5.039,10.727,5.954,16.952,5.9a109.347,109.347,0,0,0,27.341-3.736l-.687-66.938L549.183,281.7l-8.665,11.974a21.514,21.514,0,0,1,16.575-9.441,4.422,4.422,0,0,0-4.2-1.163l5.483-1.755-4.285-.373,2.391-3.875a2.691,2.691,0,0,1-3.256,1.016,7.845,7.845,0,0,1-2.935-2.23c-3.91-4.1-7.861-8.248-10.655-13.174s-4.356-10.787-3.108-16.31l-2,4.976-3.048-8.506a7.939,7.939,0,0,1-2.389,7.515,7.422,7.422,0,0,0-2.239,2.344,2.541,2.541,0,0,0-.111,1.445c7.652,40.921-17.226,41.142-25.949,38.892-7.813-2.016-14.975-11.867-15.272-19.829a1.3,1.3,0,0,1,1.936-1.167c14.7,8.117,27.3,10.19,22.929,6.832-7.779-1.663-28.506-10.16-31.963-28.681a2.492,2.492,0,0,0-3.027-1.969Z" transform="translate(-448.916 -242.843)"/></g></g><path d="M495.645,317.241s-1.448-24.637-4.294-48.347c-1.708-14.227-4.564-28.321-5.218-38.851-.855-13.777,15.965-9.948,30.609-10.561s28.872-2.512,29.888,10.293,2.413,86.654,2.413,86.654S521.3,323.869,495.645,317.241Z" transform="translate(-486.102 -219.014)" fill="none" stroke="#263238" stroke-linecap="round" stroke-linejoin="round" stroke-width="0.75"/></g><path d="M537.2,430.044a27.515,27.515,0,0,0-1.909-3.88c-3.6-4.783-3.148-8.862-4.468-13.324-.4-1.367-3.162-4.743-3.162-4.743" transform="translate(-451.926 -252.71)" fill="none" stroke="#263238" stroke-linecap="round" stroke-linejoin="round" stroke-width="0.75"/><path d="M603.3,340.036l-4.281,5.081,1.317,8.909,6.521-6.863Z" transform="translate(-482.174 -223.86)" fill="#fff" stroke="#263238" stroke-linecap="round" stroke-linejoin="round" stroke-width="0.75"/><g transform="translate(109.209 118.204)"><path d="M594.185,346.98c-.18-.866-.277-3.068-1.113-3.358-1.534-.531-4.483,2.256-5.415,3.585a6.823,6.823,0,0,0-1.373,2.724c0,.39.344,1.318.729,1.379.67.107,1.433-1.448,1.951-1.886a26.33,26.33,0,0,1,3.083-1.762,26.762,26.762,0,0,1-2.554,3.241c-1.1.9-5.69,3.457-2.776,4.979,0,0-1.125,1.651.636,2.087s4.561-2,4.561-2a10.687,10.687,0,0,1-1.786,1.932c-1.115.994-2.765.777-2.374,1.479.606,1.089,2.1,1.19,3.7.654a6.137,6.137,0,0,0,3.816-3.049C596.71,354.6,594.7,349.444,594.185,346.98Z" transform="translate(-585.763 -343.556)" fill="#fff" stroke="#1a2e35" stroke-linecap="round" stroke-linejoin="round" stroke-width="0.75"/><path d="M589.507,361.147a32.223,32.223,0,0,0,3.622-2.125,6.838,6.838,0,0,0,1.859-2.187" transform="translate(-587.35 -349.184)" fill="none" stroke="#1a2e35" stroke-linecap="round" stroke-linejoin="round" stroke-width="0.75"/></g><g transform="translate(98.499 46.495)"><path d="M567.174,219.086s14.264.847,14.182,5.233c0,0,7.141,3.041,7.523,6.477s30.509,35.713,25.286,45.086c-4.56,8.183-22.965,23.4-22.965,23.4s-1.759-3.952-3.746-8.567c0,0,8.074-17.612,11.767-19.421l-19.382-24.616" transform="translate(-567.174 -219.086)" fill="#92e3a9"/><g clip-path="url(#e)"><g transform="translate(-67.843 13.592)" opacity="0.2"><path d="M475.9,248.062a48.217,48.217,0,0,1-16.273,20.25l1.373,3.145a2.99,2.99,0,0,1-4.653-1.962q-.826,4.245-1.651,8.489l-5.277-.165c2.581,2.62,7.117,2.224,10.159.157s4.964-5.372,6.861-8.522,4-6.388,7.224-8.162l11.62,54.555c.625,2.935,1.292,5.966,3.055,8.4,3.655,5.038,10.727,5.953,16.952,5.9a109.376,109.376,0,0,0,27.341-3.736q-.344-33.469-.687-66.938l17.744,22.073-8.665,11.974a21.515,21.515,0,0,1,16.574-9.441,4.421,4.421,0,0,0-4.2-1.162l5.483-1.755-4.285-.373,2.391-3.875a2.691,2.691,0,0,1-3.256,1.016,7.848,7.848,0,0,1-2.935-2.23c-3.91-4.1-7.861-8.249-10.655-13.175s-4.356-10.786-3.108-16.31l-1.995,4.975-3.049-8.506a7.939,7.939,0,0,1-2.389,7.515,8.067,8.067,0,0,0-2.187,2.227c-.61,1.275-.123,2.772.283,4.126,2.53,8.445,1.332,18.135-3.964,25.183s-14.827,10.935-23.363,8.733-15.18-10.871-14.266-19.64a98.823,98.823,0,0,0,28.4,5.85c-8.135-1.739-16.321-4.09-23.179-8.8s-12.266-12.143-12.754-20.447Z" transform="translate(-449.414 -242.679)"/></g></g><path d="M567.174,219.086s14.264.847,14.182,5.233c0,0,7.141,3.041,7.523,6.477s30.509,35.713,25.286,45.086c-4.56,8.183-22.965,23.4-22.965,23.4s-1.759-3.952-3.746-8.567c0,0,8.074-17.612,11.767-19.421l-19.382-24.616" transform="translate(-567.174 -219.086)" fill="none" stroke="#263238" stroke-linecap="round" stroke-linejoin="round" stroke-width="0.75"/></g><path d="M634.123,305.241c-3.177-2.235-7.678.113-7.678-1.355s5.419-1.6,4.968-3.116" transform="translate(-493.799 -207.216)" fill="none" stroke="#263238" stroke-linecap="round" stroke-linejoin="round" stroke-width="0.75"/><g transform="translate(112.885 52.971)"><path d="M596.587,249.351a25.341,25.341,0,0,0,1.506-8.637" transform="translate(-594.028 -234.729)" fill="none" stroke="#263238" stroke-linecap="round" stroke-linejoin="round" stroke-width="0.75"/><path d="M592.566,237.437c.169,3.349.338,8.107.184,11.738a.777.777,0,0,0,1.484.358" transform="translate(-592.323 -233.34)" fill="none" stroke="#263238" stroke-linecap="round" stroke-linejoin="round" stroke-width="0.75"/><path d="M592.145,230.326s.051.717.122,1.886" transform="translate(-592.145 -230.326)" fill="none" stroke="#263238" stroke-linecap="round" stroke-linejoin="round" stroke-width="0.75"/></g><path d="M478.869,246.986s-.849,5.931,0,10.164" transform="translate(-431.084 -184.417)" fill="none" stroke="#263238" stroke-linecap="round" stroke-linejoin="round" stroke-width="0.75"/><g transform="translate(0 29.276)"><path d="M419.067,216.565l-3.268-9.4s-1.016-6.436-1.863-7.707a19.356,19.356,0,0,0-3.049-3.049,22.647,22.647,0,0,0-2.7-3.133c-1.113-.932-7.634-4.319-8.142-4.065s-1.312,1.778,2.922,4.15a10.772,10.772,0,0,0-4.192.593c-1.863.762-3.133.974-2.329,1.778s1.482,1.186,4.488.381a23.577,23.577,0,0,0,3.811.127l.932,1.1a1.831,1.831,0,0,0-2.287.72c-.847,1.355-1.821,3.049-1.4,4.023,0,0-3.26-1.694-4.15-.3s1.863,2.668,2.964,3.515,3.769,3.133,3.769,3.133,1.905,4.276,5.886,5.844c0,0,1.542,1.778,1.1,3.43Z" transform="translate(-396.202 -189.197)" fill="#fff" stroke="#263238" stroke-linecap="round" stroke-linejoin="round" stroke-width="0.75"/><path d="M411.549,198.408l1.4,1.143,1.567,2.71,1.059,3.557" transform="translate(-402.708 -193.102)" fill="none" stroke="#263238" stroke-linecap="round" stroke-linejoin="round" stroke-width="0.75"/><path d="M414.655,211.271s-2.22,2.667-3.8,3.049a14.877,14.877,0,0,1-2-1.016c-.281-.245-.706-.724-1.566-1.41" transform="translate(-400.901 -198.554)" fill="none" stroke="#263238" stroke-linecap="round" stroke-linejoin="round" stroke-width="0.75"/><path d="M413.818,210.374l-.2-.72a4.713,4.713,0,0,1-2,0l-.508.72A9.461,9.461,0,0,1,413.818,210.374Z" transform="translate(-402.52 -197.869)" fill="none" stroke="#263238" stroke-linecap="round" stroke-linejoin="round" stroke-width="0.75"/><path d="M411.917,205.685a3.6,3.6,0,0,1,.3,1.821" transform="translate(-402.863 -196.186)" fill="none" stroke="#263238" stroke-linecap="round" stroke-linejoin="round" stroke-width="0.75"/><path d="M409.638,209.654A4.253,4.253,0,0,1,411.1,213.3" transform="translate(-401.897 -197.869)" fill="none" stroke="#263238" stroke-linecap="round" stroke-linejoin="round" stroke-width="0.75"/><path d="M414.2,204.509l.932,1.016v1.143" transform="translate(-403.829 -195.688)" fill="none" stroke="#263238" stroke-linecap="round" stroke-linejoin="round" stroke-width="0.75"/></g><g transform="translate(13.698 48)"><path d="M464.281,221.7s-5.4-.228-8.842,9.483c0,0-4.068,2.376-12.346,20.443,0,0-1.425-1.907-4.484-7.132-2.67-4.561-6.748-10.457-10.116-19.081,0,0-2.71,3.337-8.515,3.144,0,0,12.58,42.491,21.388,42.491,9.711,0,20.407-22.584,20.407-22.584" transform="translate(-419.978 -221.697)" fill="#92e3a9"/><g clip-path="url(#f)"><g transform="translate(16.958 12.088)" opacity="0.2"><path d="M475.9,248.062a48.217,48.217,0,0,1-16.273,20.25l1.373,3.145a2.99,2.99,0,0,1-4.653-1.962q-.826,4.245-1.651,8.489l-5.277-.165c2.581,2.62,7.117,2.224,10.159.157s4.964-5.372,6.861-8.522,4-6.388,7.224-8.162l11.62,54.555c.625,2.935,1.292,5.966,3.055,8.4,3.655,5.038,10.727,5.953,16.952,5.9a109.376,109.376,0,0,0,27.341-3.736q-.344-33.469-.687-66.938l17.744,22.073-8.665,11.974a21.515,21.515,0,0,1,16.574-9.441,4.421,4.421,0,0,0-4.2-1.162l5.483-1.755-4.285-.373,2.391-3.875a2.691,2.691,0,0,1-3.256,1.016,7.848,7.848,0,0,1-2.935-2.23c-3.91-4.1-7.861-8.249-10.655-13.175s-4.356-10.786-3.108-16.31l-1.995,4.975-3.049-8.506a7.939,7.939,0,0,1-2.389,7.515,8.067,8.067,0,0,0-2.187,2.227c-.61,1.275-.123,2.772.283,4.126,2.53,8.445,1.332,18.135-3.964,25.183s-14.827,10.935-23.363,8.733-15.18-10.871-14.266-19.64a98.823,98.823,0,0,0,28.4,5.85c-8.135-1.739-16.321-4.09-23.179-8.8s-12.266-12.143-12.754-20.447Z" transform="translate(-449.414 -242.679)"/></g></g></g><path d="M464.281,221.7s-5.4-.228-8.842,9.483c0,0-4.068,2.376-12.346,20.443,0,0-1.425-1.907-4.484-7.132-2.67-4.561-6.748-10.457-10.116-19.081,0,0-2.71,3.337-8.515,3.144,0,0,12.58,42.491,21.388,42.491,9.711,0,20.407-22.584,20.407-22.584" transform="translate(-406.28 -173.698)" fill="none" stroke="#263238" stroke-linecap="round" stroke-linejoin="round" stroke-width="0.75"/><g transform="translate(48.861 57.483)"><path d="M486.295,240.3q-.084-1.027-.139-2.138" transform="translate(-483.194 -238.158)" fill="none" stroke="#263238" stroke-linecap="round" stroke-linejoin="round" stroke-width="0.75"/><path d="M487.566,256.912c1.575-.172.2-3.405-.632-9.921" transform="translate(-483.523 -241.902)" fill="none" stroke="#263238" stroke-linecap="round" stroke-linejoin="round" stroke-width="0.75"/><path d="M481.014,243.262s1.312,7.675,2.822,10.785" transform="translate(-481.014 -240.322)" fill="none" stroke="#263238" stroke-linecap="round" stroke-linejoin="round" stroke-width="0.75"/></g><g transform="translate(70.202 31.372)"><path d="M532.953,192.835s1.477,14.675,4.752,16.443c0,0-.523,5.608-10.085,5.608s-9.563-7.9-9.563-7.9Z" transform="translate(-518.057 -192.835)" fill="#fff"/><g clip-path="url(#g)"><path d="M507.076,162.811s-1.552,9.243-1.3,11.159-.22,3.931.172,7.062,2.777,11.852,8.469,13.184c2.967.695,9.4-2.2,12.067-8.126.181-.4,1.25-4.96,1.25-4.96s2.638,1.784,3.486-1.1,2.273-5.523.443-7.246c-1.912-1.8-4.308,2.011-4.652,3.392s-1.7-.185-1.7-.185-.846-6.356-2.83-8.043,1.716-4.952-.163-7.166S512.088,159.064,507.076,162.811Z" transform="translate(-512.841 -178.688)" fill="#263238" stroke="#263238" stroke-linecap="round" stroke-linejoin="round" stroke-width="0.75"/></g><path d="M532.953,192.835s1.477,14.675,4.752,16.443c0,0-.523,5.608-10.085,5.608s-9.563-7.9-9.563-7.9Z" transform="translate(-518.057 -192.835)" fill="none" stroke="#263238" stroke-linecap="round" stroke-linejoin="round" stroke-width="0.75"/></g><g transform="translate(55.157)"><path d="M499.01,154.029s-8.7-.839-6.794-7.862,9.177-7.786,9.177-7.786-1.467,5.038,7.159,4.046,17.938-1.832,18.32,6.868a18.35,18.35,0,0,1-2.29,16.413c-5.649,8.092-10.84,1.539-10.84,1.539l-4.5-9.631-8.3-1.756Z" transform="translate(-491.942 -138.381)" fill="#263238"/><g clip-path="url(#h)"><path d="M524.372,157.3s10.3,1.193,15.338-.026,6.411,12.445,6.411,12.445l-1.221,8.32L531.16,180.4l-6.336-5.649-2.6-7.863Z" transform="translate(-504.78 -146.355)" fill="#858585" stroke="#263238" stroke-miterlimit="10" stroke-width="0.75"/></g><path d="M499.01,154.029s-8.7-.839-6.794-7.862,9.177-7.786,9.177-7.786-1.467,5.038,7.159,4.046,17.938-1.832,18.32,6.868a18.35,18.35,0,0,1-2.29,16.413c-5.649,8.092-10.84,1.539-10.84,1.539l-4.5-9.631-8.3-1.756Z" transform="translate(-491.942 -138.381)" fill="none" stroke="#263238" stroke-miterlimit="10" stroke-width="0.75"/></g><path d="M500.681,160.923s-2.008,9.3-1.753,11.22-.342,3.948.046,7.079,1.743,14.861,8.5,13.962c6.66-.887,15.822-6.337,16.636-11.748.066-.44.463-1.72.463-1.72a3.074,3.074,0,0,0,3.834-2.05c1.05-2.912,2.767-5.589.674-7.277-2.185-1.762-5.058,2.111-5.489,3.5s-1.971-.149-1.971-.149-.846-6.356-3.119-8,2.106-5-.032-7.183S506.6,157.055,500.681,160.923Z" transform="translate(-439.709 -146.411)" fill="#fff" stroke="#263238" stroke-linecap="round" stroke-linejoin="round" stroke-width="0.75"/><path d="M505.952,182.8c0,1.711-3.228,4.7-2.846,6.226.21.838,2.382,1.246,2.831,1.985a1.591,1.591,0,0,1,.175.7" transform="translate(-441.504 -157.21)" fill="#fff" stroke="#263238" stroke-linecap="round" stroke-linejoin="round" stroke-width="0.75"/><path d="M501.836,183.64c-.047.666-.353,1.187-.684,1.164s-.56-.582-.513-1.248.354-1.187.684-1.164S501.883,182.974,501.836,183.64Z" transform="translate(-440.469 -157.036)" fill="#263238"/><path d="M514.84,181.7c-.05.7-.369,1.241-.715,1.217s-.585-.609-.536-1.305.369-1.241.715-1.217S514.89,181,514.84,181.7Z" transform="translate(-445.958 -156.188)" fill="#263238"/><path d="M509.861,176.58a5.721,5.721,0,0,1,6.694.147" transform="translate(-444.381 -154.153)" fill="none" stroke="#263238" stroke-linecap="round" stroke-linejoin="round" stroke-width="0.75"/><path d="M517.4,200.777s-6.346,5.623-9.064.729" transform="translate(-443.734 -164.83)" fill="#fff" stroke="#263238" stroke-linecap="round" stroke-linejoin="round" stroke-width="0.75"/><path d="M496.505,179.111a3.745,3.745,0,0,1,5.146-.685" transform="translate(-438.719 -155.054)" fill="none" stroke="#263238" stroke-linecap="round" stroke-linejoin="round" stroke-width="0.75"/><path d="M501.292,161.363s-9.393.611-4.687,6.473C496.6,167.836,496.5,163.612,501.292,161.363Z" transform="translate(-438.202 -148.123)" fill="#263238"/><path d="M501.967,182.8a2.566,2.566,0,1,1-5.089,0c0-1.6,1.139-2.29,2.545-2.29S501.967,181.2,501.967,182.8Z" transform="translate(-438.877 -156.239)" fill="none" stroke="#263238" stroke-linecap="round" stroke-linejoin="round" stroke-width="0.75"/><path d="M516.535,180.9a3.195,3.195,0,0,1-6.363,0c0-1.6,1.424-2.29,3.181-2.29S516.535,179.294,516.535,180.9Z" transform="translate(-444.512 -155.432)" fill="none" stroke="#263238" stroke-linecap="round" stroke-linejoin="round" stroke-width="0.75"/><path d="M505.383,182.04c0-.7,2.759-1.056,2.759-.36" transform="translate(-442.482 -156.576)" fill="none" stroke="#263238" stroke-linecap="round" stroke-linejoin="round" stroke-width="0.75"/><line x2="13.276" y2="1.13" transform="translate(71.822 24.334)" fill="none" stroke="#263238" stroke-linecap="round" stroke-linejoin="round" stroke-width="0.75"/><g transform="translate(61.571 96.942)"><path d="M507.68,315.548c5.55,9.835,19.617,30.488,40.4,31.668" transform="translate(-505.027 -310.422)" fill="none" stroke="#263238" stroke-linecap="round" stroke-linejoin="round" stroke-width="0.75"/><path d="M503.075,306.65s.4.907,1.2,2.436" transform="translate(-503.075 -306.65)" fill="none" stroke="#263238" stroke-linecap="round" stroke-linejoin="round" stroke-width="0.75"/></g><path d="M539.09,219.086q-1.378.038-2.8.1c-.511,4.278-5.51,5.52-10.129,5.52-4.507,0-7.061-1.184-7.422-5.216-.944-.016-1.877-.028-2.794-.031.366,5.711,4.13,7.959,10.215,7.959C532.38,227.42,538.71,225.071,539.09,219.086Z" transform="translate(-446.962 -172.591)" fill="#92e3a9" stroke="#263238" stroke-miterlimit="10" stroke-width="1"/><path d="M459.292,287.058s-.258-7.114.758-7.453,1.016,3.9,3.726,3.726" transform="translate(-422.933 -198.236)" fill="none" stroke="#263238" stroke-linecap="round" stroke-linejoin="round" stroke-width="0.75"/></g><rect width="72.8" height="10.453" rx="4.417" transform="translate(0.358 28.364) rotate(1.961)" fill="#fff" stroke="#263238" stroke-linecap="round" stroke-linejoin="round" stroke-width="0.75"/><g transform="translate(32.304 32.428)"><path d="M335.851,198.656v-.568l2.346-1.012v.614l-1.617.683,1.617.683v.613Z" transform="translate(-335.851 -195.689)" fill="#263238"/><path d="M342.879,194.668h.729l-2.116,5.366h-.729Z" transform="translate(-337.933 -194.668)" fill="#263238"/><path d="M346.542,199.055l1.618-.683-1.618-.683v-.614l2.346,1.012v.568l-2.346,1.012Z" transform="translate(-340.383 -195.689)" fill="#263238"/></g></g><line x1="1.651" transform="translate(0 32.031)" fill="none" stroke="#263238" stroke-linecap="round" stroke-linejoin="round" stroke-width="0.75"/></g><g transform="translate(124.808 124.114)"><g transform="translate(69.106)"><path d="M408.589,264.784l-1.931-8.347-3.8-14.227-4-4.287-5.294-4s-5.856-2.473-6.052-1.2a1.475,1.475,0,0,0,.883,1.666s-1.667-.588-2.058.441,2.3,1.764,3.823,3.087a22.869,22.869,0,0,1,2.452,2.462s-2.124,2.647-1.847,4.086l.179.656s-4.242-2.306-4.645-.442,2.5,2.243,4.162,4.039a25.827,25.827,0,0,0,3.207,2.94s1.641,4.147,5.192,5.617l.219,9.115S404.521,267.491,408.589,264.784Z" transform="translate(-386.263 -232.358)" fill="#fff" stroke="#263238" stroke-linecap="round" stroke-linejoin="round" stroke-width="0.75"/><path d="M390.734,236.734a33.14,33.14,0,0,0,3.98,2.352s2.48,2.607,3.37,3.533a19.027,19.027,0,0,1,2.108,3.341" transform="translate(-388.158 -234.213)" fill="#fff" stroke="#263238" stroke-linecap="round" stroke-linejoin="round" stroke-width="0.75"/><path d="M398.3,247.28a28.562,28.562,0,0,0,1.959,2.9c.785.922.7,1.462.154,2.1" transform="translate(-391.368 -238.683)" fill="none" stroke="#263238" stroke-linecap="round" stroke-linejoin="round" stroke-width="0.75"/><path d="M396.1,254.763a7.729,7.729,0,0,1,1.271,1.144,2.321,2.321,0,0,0,2.725.512c.8-.565,2.959-2.1,2.666-2.674" transform="translate(-390.433 -241.423)" fill="none" stroke="#263238" stroke-linecap="round" stroke-linejoin="round" stroke-width="0.75"/><path d="M398.439,250.722s0,.862-.556,1.167.824-.334,1.382.2" transform="translate(-391.134 -240.142)" fill="none" stroke="#263238" stroke-linecap="round" stroke-linejoin="round" stroke-width="0.75"/></g><g transform="translate(79.511 11.832)"><g transform="translate(0 16.388)"><path d="M453.081,310.169s-4.8-3.05-11.652-.572a150.379,150.379,0,0,0-17.722,2s.778-2.055-2-1.587c0,0-1.035-21.435-4.569-28.669,0,0-.419,2.068-12.74,2.579,0,0-.876,38.331,3.629,43.951s42.279,1.258,42.279,1.258S457.039,316.732,453.081,310.169Z" transform="translate(-404.325 -281.34)" fill="#263238"/><g clip-path="url(#i)"><path d="M399.362,348.835s5.565,8.631,15.177,7.644S446.02,346.471,446.8,354.6s-9.656,6.6-9.656,6.6l-25.535,3.937s-2.677,4.628-10.837-2.4l-8.159-7.031Z" transform="translate(-399.362 -309.95)" opacity="0.2"/></g><path d="M453.081,310.169s-4.8-3.05-11.652-.572a150.379,150.379,0,0,0-17.722,2s.778-2.055-2-1.587c0,0-1.035-21.435-4.569-28.669,0,0-.419,2.068-12.74,2.579,0,0-.876,38.331,3.629,43.951s42.279,1.258,42.279,1.258S457.039,316.732,453.081,310.169Z" transform="translate(-404.325 -281.34)" fill="none" stroke="#263238" stroke-linecap="round" stroke-linejoin="round" stroke-width="0.75"/></g><path d="M419.673,339.9s7.51-7.988,8.789-6.231-2.034,1.917-3.973,9.587" transform="translate(-410.831 -287.028)" fill="none" stroke="#7f7f7f" stroke-linecap="round" stroke-linejoin="round" stroke-width="0.75"/><g transform="translate(41.164 42.387)"><path d="M480.369,395.445s1.119-21.733,0-38.353-9.748-22.532,0-27.486,41.868-3.676,51.936,1.278,3.676,27.806,4.155,37.873,2.237,26.687,2.237,26.687Z" transform="translate(-475.777 -326.469)" fill="#263238"/><g clip-path="url(#j)"><path d="M518.439,369.851s-6.679-4.634-10.334,1.119,16.161,34.438,19.569,34.583,19.742,0,19.742,0l8.8-19.389s-3.823-40.762-11.067-41.509-12.146,14.868-13.211,24-.073,12.813-.073,12.813Z" transform="translate(-489.29 -334.167)" opacity="0.2"/></g><path d="M480.369,395.445s1.119-21.733,0-38.353-9.748-22.532,0-27.486,41.868-3.676,51.936,1.278,3.676,27.806,4.155,37.873,2.237,26.687,2.237,26.687Z" transform="translate(-475.777 -326.469)" fill="none" stroke="#263238" stroke-linecap="round" stroke-linejoin="round" stroke-width="0.75"/></g><path d="M516.5,409.692a1.119,1.119,0,1,1-1.119-1.119A1.119,1.119,0,0,1,516.5,409.692Z" transform="translate(-450.924 -318.884)" fill="#858585"/><path d="M516.5,431.8a1.119,1.119,0,1,1-1.119-1.119A1.119,1.119,0,0,1,516.5,431.8Z" transform="translate(-450.924 -328.255)" fill="#858585"/><path d="M511.739,346.22c1.932,0,3.3,3.941,5.134,3.915s6.478-12.766,8.5-16.344,1.107-7.985-1.934-8.8-20.875,0-20.875,0a7.557,7.557,0,0,0-.523,7.03c1.7,3.836,2.344,16.407,4.794,16.833S509.289,346.22,511.739,346.22Z" transform="translate(-445.475 -283.303)" fill="#858585" stroke="#263238" stroke-linecap="round" stroke-linejoin="round" stroke-width="1"/><path d="M410.349,295.449a1.119,1.119,0,1,1-.668-1.435A1.119,1.119,0,0,1,410.349,295.449Z" transform="translate(-405.959 -270.296)" fill="#858585"/><path d="M410.349,304.113a1.119,1.119,0,1,1-.668-1.434A1.118,1.118,0,0,1,410.349,304.113Z" transform="translate(-405.959 -273.969)" fill="#858585"/><g transform="translate(56.57 33.593)"><path d="M502.517,323.242s7.351,16.578,10.334,16.087,5.114-7.3,8.1-10.681,3.278-6.375,3.077-8.234l-.839-8.465-6.712-.745-9.588,7.031Z" transform="translate(-502.517 -311.204)" fill="#fff"/><g clip-path="url(#k)"><path d="M489.168,280.988s-.736,9.737-.207,11.65.206,4.06,1.041,7.188,3.857,14.86,10.6,13c6.645-1.836,16.364-9.4,15.8-14.982l-.306-1.107a3.154,3.154,0,0,0,3.609-2.622c.659-3.107,2.028-6.069-.336-7.491-2.469-1.485-4.845,2.855-5.087,4.331s-2.023.126-2.023.126-1.753-6.341-4.294-7.7,1.439-5.381-1.041-7.3S494.638,276.227,489.168,280.988Z" transform="translate(-496.69 -296.015)" fill="#263238" stroke="#263238" stroke-linecap="round" stroke-linejoin="round" stroke-width="0.75"/></g><path d="M502.517,323.242s7.351,16.578,10.334,16.087,5.114-7.3,8.1-10.681,3.278-6.375,3.077-8.234l-.839-8.465-6.712-.745-9.588,7.031Z" transform="translate(-502.517 -311.204)" fill="none" stroke="#263238" stroke-linecap="round" stroke-linejoin="round" stroke-width="0.75"/></g><path d="M493.547,273.737s-3.369,9.375-3.369,11.4-.9,4.048-.929,7.351-.245,15.661,6.9,15.661c7.033,0,18.644-4.794,19.6-10.44v-1.172a3.218,3.218,0,0,0,4.262-1.6c1.492-2.876,3.643-5.417,1.7-7.457-2.024-2.13-5.539,1.492-6.179,2.877s-2.024-.426-2.024-.426,0-6.712-2.131-8.736,2.877-4.9.959-7.458S500.219,270.54,493.547,273.737Z" transform="translate(-440.32 -260.812)" fill="#fff" stroke="#263238" stroke-linecap="round" stroke-linejoin="round" stroke-width="0.75"/><path d="M521.966,281.943a13.662,13.662,0,0,0,1.278-12.4s-2.238-11.292-15.98-12.464c0,0,3.516-2.663,1.278-3.729-3.389-1.613-9.344,3.836-9.344,3.836s2.792-4.222,1.433-4.3-10.92,10.69-5.233,14.524,14.121.531,14.121.531l4.137,13.993.639,1.774,6,.426Z" transform="translate(-442.171 -252.894)" fill="#263238" stroke="#263238" stroke-linecap="round" stroke-linejoin="round" stroke-width="0.75"/><path d="M529.367,268.119c3.844,2.231,6.31,6.292,5.305,15.234" transform="translate(-457.329 -259.348)" fill="none" stroke="#7f7f7f" stroke-linecap="round" stroke-linejoin="round" stroke-width="0.75"/><path d="M509.745,266.177c2.5-.247,6.2-1.467,9.579-.04" transform="translate(-449.011 -258.219)" fill="none" stroke="#7f7f7f" stroke-linecap="round" stroke-linejoin="round" stroke-width="0.75"/><path d="M511.294,256.467s-7.657,3.729-5.906,5.433" transform="translate(-447.054 -254.409)" fill="none" stroke="#7f7f7f" stroke-linecap="round" stroke-linejoin="round" stroke-width="0.75"/><path d="M497.8,268.483c1.758,1.385,3.889-.107,7.617,0" transform="translate(-443.948 -259.5)" fill="none" stroke="#7f7f7f" stroke-linecap="round" stroke-linejoin="round" stroke-width="0.75"/><path d="M499.776,258.5a14.012,14.012,0,0,0-2.468,3.838" transform="translate(-443.74 -255.271)" fill="none" stroke="#7f7f7f" stroke-linecap="round" stroke-linejoin="round" stroke-width="0.75"/><path d="M493.547,273.737s-3.369,9.375-3.369,11.4-.9,4.048-.929,7.351-.245,15.661,6.9,15.661c7.033,0,18.644-4.794,19.6-10.44v-1.172a3.218,3.218,0,0,0,4.262-1.6c1.492-2.876,3.643-5.417,1.7-7.457-2.024-2.13-5.539,1.492-6.179,2.877s-2.024-.426-2.024-.426,0-6.712-2.131-8.736,2.877-4.9.959-7.458S500.219,270.54,493.547,273.737Z" transform="translate(-440.32 -260.812)" fill="#fff" stroke="#263238" stroke-linecap="round" stroke-linejoin="round" stroke-width="0.75"/><path d="M499.769,296.41s-3.914,3.8-3.729,5.433c.1.9,2.3,1.622,2.663,2.45a4.5,4.5,0,0,1,0,1.385" transform="translate(-443.199 -271.34)" fill="#fff" stroke="#263238" stroke-linecap="round" stroke-linejoin="round" stroke-width="0.75"/><path d="M496.082,295.682c-.249.754-.858,1.231-1.36,1.065s-.705-.912-.456-1.666.859-1.231,1.36-1.065S496.332,294.928,496.082,295.682Z" transform="translate(-442.404 -270.311)" fill="#263238"/><path d="M512.849,295.682c-.25.754-.859,1.231-1.36,1.065s-.706-.912-.456-1.666.859-1.231,1.36-1.065S513.1,294.928,512.849,295.682Z" transform="translate(-449.512 -270.311)" fill="#263238"/><path d="M508.434,290.923s3.3-2.012,6.925,1.077" transform="translate(-448.455 -268.741)" fill="#fff" stroke="#263238" stroke-linecap="round" stroke-linejoin="round" stroke-width="0.75"/><path d="M496.715,313.978a19.991,19.991,0,0,0,10.214.532S499.019,319.837,496.715,313.978Z" transform="translate(-443.488 -278.787)" fill="#fff" stroke="#263238" stroke-linecap="round" stroke-linejoin="round" stroke-width="0.75"/><path d="M493.086,291.541a3.92,3.92,0,0,1,5.433,0" transform="translate(-441.95 -268.814)" fill="#fff" stroke="#263238" stroke-linecap="round" stroke-linejoin="round" stroke-width="0.75"/><g transform="translate(67.348 44.406)"><path d="M525.3,336.646a46.78,46.78,0,0,1-4.073,9.342" transform="translate(-521.226 -332.802)" fill="#fff" stroke="#263238" stroke-linecap="round" stroke-linejoin="round" stroke-width="0.75"/><path d="M529.932,329.973s-.225.8-.615,2.038" transform="translate(-524.656 -329.973)" fill="#fff" stroke="#263238" stroke-linecap="round" stroke-linejoin="round" stroke-width="0.75"/></g><g transform="translate(45.43 47.263)"><g transform="translate(0 0.683)"><path d="M507.409,357.728l-3.332-4.018s-4.018-5.881-5.587-10.488-1.765-7.057-4.215-7.057-11.075-.588-10.781,2.352a4.819,4.819,0,0,0-.007,3.333,8.772,8.772,0,0,0,1.379,3.724c1.176,1.667,1.862,1.349,1.862,1.349s.784,1.3,1.569,1.3c0,0,.686,3.529,5.978,6.567L498,358.807l3.92,7.253,7.321-5.832Z" transform="translate(-483.181 -336.118)" fill="#fff" stroke="#263238" stroke-linecap="round" stroke-linejoin="round" stroke-width="0.75"/><path d="M497.842,343.134a18.084,18.084,0,0,1-2.72.956c-1.25.294-5.513.955-5.808,2.205s1.4,4.41,2.279,4.557,4.043,0,4.19-.661a6.1,6.1,0,0,1,0,1.764,5.9,5.9,0,0,0,.294,4.558" transform="translate(-485.766 -339.092)" fill="#fff" stroke="#263238" stroke-linecap="round" stroke-linejoin="round" stroke-width="0.75"/><path d="M483.713,343.851a2.847,2.847,0,0,1,1.7-1.176c1.1-.221,5.513-1.323,6.212-1.838" transform="translate(-483.407 -338.118)" fill="#fff" stroke="#263238" stroke-linecap="round" stroke-linejoin="round" stroke-width="0.75"/><path d="M483.725,338.926a6.579,6.579,0,0,1,1.691-.563c.882-.147,5.407-1.432,6.93-1.267" transform="translate(-483.412 -336.526)" fill="#fff" stroke="#263238" stroke-linecap="round" stroke-linejoin="round" stroke-width="0.75"/><path d="M497.239,353.1s-1.063-.845-1.634-.6-.767.883-1.5,1.274" transform="translate(-487.811 -343.043)" fill="#fff" stroke="#263238" stroke-linecap="round" stroke-linejoin="round" stroke-width="0.75"/><path d="M496.711,351.6a7.147,7.147,0,0,0,2.516-1.274" transform="translate(-488.916 -342.139)" fill="#fff" stroke="#263238" stroke-linecap="round" stroke-linejoin="round" stroke-width="0.75"/></g><path d="M548.931,335.431c-5.48-3-12.944,7.99-13.1,21.254s-.32,15.66-.32,15.66l-16.46-17.738s-1.119,4.634-8.949,8.31a98.531,98.531,0,0,0,10.227,20.454c6.712,10.068,13.264,19.017,17.418,19.017s11.878-9.751,14.7-22.532C558.519,352.371,560.307,341.664,548.931,335.431Z" transform="translate(-494.591 -334.933)" fill="#263238" stroke="#263238" stroke-linecap="round" stroke-linejoin="round" stroke-width="0.75"/><g transform="translate(43.841 39.128)"><path d="M559.411,403.477a.352.352,0,0,1,.332-.607,16.548,16.548,0,0,1,9.555,8.812" transform="translate(-559.279 -402.85)" fill="none" stroke="#7f7f7f" stroke-linecap="round" stroke-linejoin="round" stroke-width="0.75"/><path d="M566.766,415.359a20.312,20.312,0,0,0-4.79-9.112" transform="translate(-560.422 -404.29)" fill="none" stroke="#7f7f7f" stroke-linecap="round" stroke-linejoin="round" stroke-width="0.75"/></g><g transform="translate(43.841 36.424)"><path d="M579.361,404.733q.622.6,1.246,1.328" transform="translate(-567.792 -400.944)" fill="none" stroke="#7f7f7f" stroke-linecap="round" stroke-linejoin="round" stroke-width="0.75"/><path d="M559.279,398.666s4.905-2.09,10.329,2.192" transform="translate(-559.279 -398.156)" fill="none" stroke="#7f7f7f" stroke-linecap="round" stroke-linejoin="round" stroke-width="0.75"/></g><g transform="translate(42.035 8.009)"><path d="M556.512,374.925c-.156.819-.281,1.668-.368,2.548" transform="translate(-556.144 -359.894)" fill="none" stroke="#7f7f7f" stroke-linecap="round" stroke-linejoin="round" stroke-width="0.75"/><path d="M565.158,348.835a28.379,28.379,0,0,0-7.128,12.087" transform="translate(-556.943 -348.835)" fill="none" stroke="#7f7f7f" stroke-linecap="round" stroke-linejoin="round" stroke-width="0.75"/></g><path d="M518.438,389.527a1.118,1.118,0,1,1-1.118-1.119A1.118,1.118,0,0,1,518.438,389.527Z" transform="translate(-497.178 -357.6)" fill="#858585"/><path d="M522.322,397.333a1.119,1.119,0,1,1-1.119-1.119A1.119,1.119,0,0,1,522.322,397.333Z" transform="translate(-498.824 -360.909)" fill="#858585"/><line x1="13.849" y1="14.925" transform="translate(24.457 19.675)" fill="none" stroke="#7f7f7f" stroke-linecap="round" stroke-linejoin="round" stroke-width="0.75"/><g transform="translate(40.916 0.395)"><path d="M560.286,340.734c-3.161,3.894-5.672,10.776-5.765,18.41-.16,13.263-.32,15.66-.32,15.66" transform="translate(-554.202 -337.787)" fill="none" stroke="#7f7f7f" stroke-linecap="round" stroke-linejoin="round" stroke-width="0.75"/><path d="M569.386,335.619a8.019,8.019,0,0,0-2.212,1.467" transform="translate(-559.701 -335.619)" fill="none" stroke="#7f7f7f" stroke-linecap="round" stroke-linejoin="round" stroke-width="0.75"/></g><path d="M568.963,434.01a42.77,42.77,0,0,0,7.365-14.14" transform="translate(-519.543 -370.936)" fill="none" stroke="#7f7f7f" stroke-linecap="round" stroke-linejoin="round" stroke-width="0.75"/><path d="M510.1,383.508a98.531,98.531,0,0,0,10.227,20.454c3.884,5.825,7.714,11.276,11.057,14.836" transform="translate(-494.591 -355.523)" fill="none" stroke="#7f7f7f" stroke-linecap="round" stroke-linejoin="round" stroke-width="0.75"/></g></g><g transform="translate(63.542 84.946)"><path d="M1.313,0H26.585a0,0,0,0,1,0,0V2.344a0,0,0,0,1,0,0H1.031A1.031,1.031,0,0,1,0,1.313v0A1.313,1.313,0,0,1,1.313,0Z" transform="translate(86.283 41.123) rotate(180)" fill="#cbf2d6" stroke="#263238" stroke-linecap="round" stroke-linejoin="round" stroke-width="1"/><path d="M458.628,379.8h3.244a2.3,2.3,0,0,1,2.2,1.655l10.617,36.533a2.3,2.3,0,0,1-2.2,2.935h-2.813Z" transform="translate(-411.374 -379.804)" fill="#263238" stroke="#263238" stroke-linecap="round" stroke-linejoin="round" stroke-width="0.75"/><path d="M389.519,420.926H436.6a2.3,2.3,0,0,0,2.2-2.935l-10.617-36.533a2.3,2.3,0,0,0-2.2-1.655H378.9a2.3,2.3,0,0,0-2.2,2.936l10.617,36.532A2.294,2.294,0,0,0,389.519,420.926Z" transform="translate(-376.605 -379.804)" fill="#92e3a9" stroke="#263238" stroke-linecap="round" stroke-linejoin="round" stroke-width="0.75"/></g><g transform="translate(0 1.677)"><rect width="72.8" height="10.453" rx="4.417" fill="#92e3a9"/><g clip-path="url(#l)"><rect width="72.8" height="10.453" rx="4.417" fill="#fff" opacity="0.5"/></g><rect width="72.8" height="10.453" rx="4.417" fill="none" stroke="#263238" stroke-linecap="round" stroke-linejoin="round" stroke-width="0.75"/></g><g transform="translate(33.465 3.717)"><path d="M324.4,243.01v-2.882a1.244,1.244,0,1,1,2.484,0v.567h-.8v-.62c0-.353-.169-.5-.422-.5s-.421.145-.421.5v3c0,.353.168.491.421.491s.422-.138.422-.491v-.82h.8v.759a1.244,1.244,0,1,1-2.484,0Z" transform="translate(-324.398 -238.809)" fill="#263238"/><path d="M330.431,242.917H329.4v-.6h1.027v-1.035h.6v1.035h1.027v.6h-1.027v1.05h-.6Z" transform="translate(-326.52 -239.858)" fill="#263238"/><path d="M335.757,242.917H334.73v-.6h1.027v-1.035h.6v1.035h1.027v.6h-1.027v1.05h-.6Z" transform="translate(-328.778 -239.858)" fill="#263238"/></g></g><g transform="translate(0 70.228)"><rect width="72.8" height="10.453" rx="4.417" transform="matrix(0.989, -0.15, 0.15, 0.989, 120.959, 17.382)" fill="#92e3a9" stroke="#263238" stroke-linecap="round" stroke-linejoin="round" stroke-width="0.75"/><g transform="translate(0 54.881)"><path d="M74.38,234.085s-5.913,2.923-7.255,8.8c0,0-1.678-1.678-2.349,5.537,0,0-14.933,27.686-15.1,39.6S77.7,319.226,77.7,319.226s3.021-4.027,2.349-7.719c0,0-10.907-20.639-16.444-23.155,0,0,6.208-15.1,10.4-17.954S74.38,234.085,74.38,234.085Z" transform="translate(-49.674 -234.085)" fill="#263238"/><g clip-path="url(#m)"><path d="M80.656,294.841s-6.567-18.88-8.879-14.7-8.278,25.6-4.869,28.737-2.131,3.316.426,7.489,19.177,19.8,20.881,19.335-6.17-26.824-6.17-26.824Z" transform="translate(-56.543 -253.351)" opacity="0.2"/></g><path d="M74.38,234.085s-5.913,2.923-7.255,8.8c0,0-1.678-1.678-2.349,5.537,0,0-14.933,27.686-15.1,39.6S77.7,319.226,77.7,319.226s3.021-4.027,2.349-7.719c0,0-10.907-20.639-16.444-23.155,0,0,6.208-15.1,10.4-17.954S74.38,234.085,74.38,234.085Z" transform="translate(-49.674 -234.085)" fill="none" stroke="#263238" stroke-linecap="round" stroke-linejoin="round" stroke-width="0.75"/><path d="M79.079,260.891s.557,8.655,2.563,13.576" transform="translate(-62.138 -245.448)" fill="none" stroke="#7f7f7f" stroke-linecap="round" stroke-linejoin="round" stroke-width="0.75"/><path d="M66.405,331.245s-3.146,3.374-7.507,2.916" transform="translate(-53.584 -275.27)" fill="none" stroke="#7f7f7f" stroke-linecap="round" stroke-linejoin="round" stroke-width="0.75"/><line x2="0.32" y2="10.227" transform="translate(25.182 71.222)" fill="none" stroke="#7f7f7f" stroke-linecap="round" stroke-linejoin="round" stroke-width="0.75"/></g><g transform="translate(26.461 142.874)"><path d="M144.65,388s7.047,22.1,8.389,33.03H95.655s-.5-25.932,1.678-34.205Z" transform="translate(-95.604 -386.822)" fill="#92e3a9" stroke="#263238" stroke-linecap="round" stroke-linejoin="round" stroke-width="0.75"/><path d="M138.849,436.043c1.289,1.175,3.8,5.848,3.8,5.848" transform="translate(-113.935 -407.686)" fill="none" stroke="#263238" stroke-linecap="round" stroke-linejoin="round" stroke-width="0.75"/><path d="M117.827,410.122a98.379,98.379,0,0,0,9.754,12.608" transform="translate(-105.024 -396.699)" fill="none" stroke="#263238" stroke-linecap="round" stroke-linejoin="round" stroke-width="0.75"/></g><path d="M121.159,149.982s4.363-3.915,3.356-6.376c-1.314-3.211-4.7,1.566-4.7,1.566s1.342-4.922-1.527-6.152c-3.071-1.317-5.632,4.474-5.632,4.474s-.794-4.97-5.146-3.915c-3.692.9-.671,5.034-3.692,6.376s-12.976,4.81-11.074,11.522c0,0-2.685-5.261-3.692-3.133s2.461,5.035,3.8,5.371c0,0-2.125,4.475-.448,5.705s1.342-3.244,1.342-3.244a25.548,25.548,0,0,0,12.976,18.793c11.882,6.463,11.561-14.989,11.561-14.989l2.981-9.62Z" transform="translate(-66.29 -138.825)" fill="#263238" stroke="#263238" stroke-linecap="round" stroke-linejoin="round" stroke-width="0.75"/><g transform="translate(29.676 2.768)"><path d="M111.243,156.638c-5,1.566-12.525,3.468-9.266,13.423" transform="translate(-101.184 -149.143)" fill="none" stroke="#7f7f7f" stroke-linecap="round" stroke-linejoin="round" stroke-width="0.75"/><path d="M122.328,143.629s1.865,3.889-.084,6.2" transform="translate(-110.111 -143.629)" fill="none" stroke="#7f7f7f" stroke-linecap="round" stroke-linejoin="round" stroke-width="0.75"/></g><g transform="translate(34.406 2.32)"><g transform="translate(0 4.489)"><path d="M112.485,190.617q.4.952.9,1.974" transform="translate(-110.705 -167.588)" fill="none" stroke="#7f7f7f" stroke-linecap="round" stroke-linejoin="round" stroke-width="0.75"/><path d="M124.45,150.644a10.054,10.054,0,0,1-4.325,3.789c-5.172,2.486-13.349,5.353-9.913,16.6" transform="translate(-109.395 -150.644)" fill="none" stroke="#7f7f7f" stroke-linecap="round" stroke-linejoin="round" stroke-width="0.75"/></g><path d="M137.647,142.852a8.029,8.029,0,0,1-.375,2.252" transform="translate(-121.212 -142.852)" fill="none" stroke="#7f7f7f" stroke-linecap="round" stroke-linejoin="round" stroke-width="0.75"/></g><g transform="translate(40.932 5.9)"><path d="M121.634,166.542c-2.654,2.035,1.18,4.743,2.734,8.165" transform="translate(-120.722 -156.473)" fill="none" stroke="#7f7f7f" stroke-linecap="round" stroke-linejoin="round" stroke-width="0.75"/><path d="M139.131,149.065s-4.922,6.712-12.081,8.837" transform="translate(-123.405 -149.065)" fill="none" stroke="#7f7f7f" stroke-linecap="round" stroke-linejoin="round" stroke-width="0.75"/></g><g transform="translate(20.169 50.84)"><path d="M91.529,320.615s-.336-12.081-2.014-30.874-11.075-56.378,2.014-59.734,39.2-5.464,47.989,3.021c9.732,9.4,2.349,61.748,2.014,70.808a116.772,116.772,0,0,0,1.342,19.464S108.14,330.851,91.529,320.615Z" transform="translate(-84.682 -227.071)" fill="#263238"/><g clip-path="url(#n)"><path d="M87.613,300.032s-5.033-32.746,12.26-34.627,40.087-1.091,42.483,13.357,7.679,49.026,7.679,49.026l3.575,15.633-28.057,5.321-37.5-4.022Z" transform="translate(-85.635 -243.006)" opacity="0.2"/></g><path d="M91.529,320.615s-.336-12.081-2.014-30.874-11.075-56.378,2.014-59.734,39.2-5.464,47.989,3.021c9.732,9.4,2.349,61.748,2.014,70.808a116.772,116.772,0,0,0,1.342,19.464S108.14,330.851,91.529,320.615Z" transform="translate(-84.682 -227.071)" fill="none" stroke="#263238" stroke-linecap="round" stroke-linejoin="round" stroke-width="0.75"/></g><path d="M133.218,194.789v-3.8s6.5,1.007,7.389-.671-.565-8.613-.565-8.613,3.132.112,3.132-1.342-3.691-7.606-3.691-7.606.447-4.922,0-6.488-5.034-10.4-5.034-10.4-6.712,3.688-6.488,5.7,2.126,3.916.559,5.595-3.691,6.206-3.02,8.361l-1.007.7s-.559-4.027-2.8-4.7-4.027,3.8-2.461,6.936,3.356,2.572,3.356,2.572-.9,5.369-3.244,7.159l-.7,5.593Z" transform="translate(-78.909 -146.046)" fill="#fff" stroke="#263238" stroke-linecap="round" stroke-linejoin="round" stroke-width="0.75"/><ellipse cx="0.727" cy="1.342" rx="0.727" ry="1.342" transform="translate(57.889 24.133)" fill="#263238"/><path d="M142.777,198.966s.525,1.454,4.737,1.678" transform="translate(-89.139 -164.318)" fill="none" stroke="#263238" stroke-linecap="round" stroke-linejoin="round" stroke-width="0.75"/><path d="M149.154,176.44a2.847,2.847,0,0,0-3.076,2.008" transform="translate(-90.538 -154.762)" fill="none" stroke="#263238" stroke-linecap="round" stroke-linejoin="round" stroke-width="0.75"/><path d="M109.471,226.792s-4.475-6.068,0-6.739,22.82-2.238,25.728,0-4.474,1.566-4.922,5.369S109.471,226.792,109.471,226.792Z" transform="translate(-74.178 -172.764)" fill="#263238" stroke="#263238" stroke-linecap="round" stroke-linejoin="round" stroke-width="0.75"/><g transform="translate(44.114 22.673)"><path d="M156.789,182.087c0,2.157-.629,3.906-1.405,3.906s-1.405-1.749-1.405-3.906.629-3.907,1.405-3.907S156.789,179.929,156.789,182.087Z" transform="translate(-138.001 -178.18)" fill="none" stroke="#263238" stroke-linecap="round" stroke-linejoin="round" stroke-width="0.75"/><path d="M144.723,180.714l-15.463,1.129a5.541,5.541,0,0,0-3.014,1.165" transform="translate(-126.245 -179.254)" fill="none" stroke="#263238" stroke-linecap="round" stroke-linejoin="round" stroke-width="1"/></g><g transform="translate(62.902 15.518)"><path d="M239.3,189.226l3.652-8.134s2.129-8.82,3.82-10.743,4.429-5.384,5.3-4.424c.631.694-.153,3.052-1.546,4.871a3.639,3.639,0,0,0,.271,4.6c.554.779,3.839,2.406,6.41,2.741s7.7-2.915,9.455-1.773-1.833,2.4-1.833,2.4,2.771-.37,3.354,1.187c.344.92-2.5.9-3.89,1.043s-4.211.551-4.211.551,5.062.646,5,2.028-3.793.086-6.63.2c0,0,4.066,1.047,3.839,2.382s-2.371-.07-5.785-.66l-7.873-1-2.484,9.181Z" transform="translate(-192.956 -165.76)" fill="#fff" stroke="#263238" stroke-linecap="round" stroke-linejoin="round" stroke-width="0.75"/><path d="M273.88,189.136a7.7,7.7,0,0,1-5.915.755s.335,1.091,0,1.552-.293,1.384-1.133,1.971a11.967,11.967,0,0,1-1.342.839" transform="translate(-204.057 -175.669)" fill="none" stroke="#263238" stroke-linecap="round" stroke-linejoin="round" stroke-width="0.75"/><g transform="translate(0 20.137)"><path d="M158.857,216.77s12.391.051,17.112,3.911c0,0,.024-2.014,3.715,0,0,0,11.242-1.342,16.444,0,0,0,6.376-15.772,10.235-19.968,0,0,5.537.336,7.047,2.853.718,1.2-.979,7.775-2.56,14.475-1.745,7.4-3.494,14.943-4.991,15.559-2.852,1.175-32.887,3.859-32.887,3.859l-14.115-7.383Z" transform="translate(-158.857 -200.713)" fill="#263238"/><g clip-path="url(#o)"><path d="M187.926,241.162s-2.8-10.03,1.7-9.091,22.4,2.773,25.7-.062,5.412-26.877,9.684-25.723,1.31,22.184,1.31,22.184,2.673,5.817-5.7,10.291l-8.378,4.475-14.8,1.28Z" transform="translate(-170.814 -203.058)" opacity="0.2"/></g><path d="M158.857,216.77s12.391.051,17.112,3.911c0,0,.024-2.014,3.715,0,0,0,11.242-1.342,16.444,0,0,0,6.376-15.772,10.235-19.968,0,0,5.537.336,7.047,2.853.718,1.2-.979,7.775-2.56,14.475-1.745,7.4-3.494,14.943-4.991,15.559-2.852,1.175-32.887,3.859-32.887,3.859l-14.115-7.383Z" transform="translate(-158.857 -200.713)" fill="none" stroke="#263238" stroke-linecap="round" stroke-linejoin="round" stroke-width="0.75"/></g><path d="M226.172,236.537s2.517.5,5.537,4.531" transform="translate(-187.391 -195.762)" fill="none" stroke="#7f7f7f" stroke-linecap="round" stroke-linejoin="round" stroke-width="0.75"/><path d="M190.931,240.469a26.214,26.214,0,0,1,0,11.662" transform="translate(-172.453 -197.428)" fill="none" stroke="#7f7f7f" stroke-linecap="round" stroke-linejoin="round" stroke-width="0.75"/><path d="M172.594,232.6s8.041,4.254,8.619,16.192" transform="translate(-164.68 -194.095)" fill="none" stroke="#7f7f7f" stroke-linecap="round" stroke-linejoin="round" stroke-width="0.75"/></g><g transform="translate(32.832 129.172)"><path d="M173.47,365.32a9.382,9.382,0,0,0,1.334-2.283" transform="translate(-134.981 -363.037)" fill="none" stroke="#7f7f7f" stroke-linecap="round" stroke-linejoin="round" stroke-width="0.75"/><path d="M106.662,374.76s26.6,3.5,36.7-4.651" transform="translate(-106.662 -366.035)" fill="none" stroke="#7f7f7f" stroke-linecap="round" stroke-linejoin="round" stroke-width="0.75"/></g><g transform="translate(153.382 13.551)"><path d="M316.407,168.34l-.47-2.844a1.244,1.244,0,1,1,2.451-.4l.092.559-.786.13-.1-.612c-.057-.349-.247-.464-.5-.423s-.392.212-.335.561l.488,2.957c.057.348.246.456.5.415s.393-.2.336-.552l-.133-.809.786-.129.124.748a1.244,1.244,0,1,1-2.45.4Z" transform="translate(-315.909 -163.034)" fill="#263238"/><path d="M321.314,167.5l-.05-.3.786-.13.06.364c.062.379.251.486.516.442s.408-.206.344-.6c-.073-.439-.285-.692-.909-1.078-.8-.5-1.1-.892-1.195-1.5a1.173,1.173,0,0,1,1.024-1.52c.809-.133,1.29.285,1.429,1.132l.036.22-.786.13-.045-.273c-.062-.379-.237-.5-.5-.453s-.392.211-.332.574c.064.387.284.638.907,1.024a2.074,2.074,0,0,1,1.194,1.543,1.191,1.191,0,0,1-1.034,1.554C321.942,168.762,321.454,168.345,321.314,167.5Z" transform="translate(-317.999 -162.688)" fill="#263238"/><path d="M326.2,166.692l-.05-.3.786-.13.06.364c.062.379.251.487.517.443s.408-.207.343-.6c-.073-.439-.285-.691-.908-1.078-.8-.5-1.1-.892-1.195-1.5a1.172,1.172,0,0,1,1.023-1.52c.809-.134,1.29.285,1.43,1.131l.036.219-.787.13-.045-.273c-.062-.378-.237-.5-.5-.453s-.392.212-.332.575c.063.386.284.637.907,1.024a2.076,2.076,0,0,1,1.195,1.544,1.191,1.191,0,0,1-1.034,1.553C326.829,167.956,326.341,167.54,326.2,166.692Z" transform="translate(-320.07 -162.346)" fill="#263238"/></g></g><g transform="translate(24.112 144.461)"><path d="M144.146,284.405s-13.317,3.841-12.785,13.749,3.09,9.339-2.557,12.607-.319,9.446-1.917,12.216-11.719,10.44-7.351,14.382,26.315-3.942,33.985,0,13.724-4.422,15.762-6.588-3.937-5.237-3.723-9.606,4.048-28.5-.852-31.721S148.38,282.642,144.146,284.405Z" transform="translate(-102.94 -274.57)" fill="#263238" stroke="#263238" stroke-linecap="round" stroke-linejoin="round" stroke-width="0.75"/><g transform="translate(57.742)"><g transform="translate(30.852)"><path d="M245.306,293.5l2.444-8.869s.959-6.073,1.758-7.271a18.256,18.256,0,0,1,2.876-2.877,21.384,21.384,0,0,1,2.546-2.957c1.05-.879,7.2-4.075,7.682-3.835s1.238,1.678-2.757,3.915a10.165,10.165,0,0,1,3.955.559c1.758.719,2.957.919,2.2,1.678s-1.4,1.118-4.235.359a22.222,22.222,0,0,1-3.6.12l-.879,1.039a1.727,1.727,0,0,1,2.158.679c.8,1.279,1.717,2.877,1.318,3.8,0,0,3.076-1.6,3.915-.279s-1.758,2.517-2.8,3.316-3.556,2.956-3.556,2.956-1.8,4.035-5.553,5.513a5.317,5.317,0,0,0-.4,3.236Z" transform="translate(-245.306 -267.677)" fill="#fff" stroke="#263238" stroke-linecap="round" stroke-linejoin="round" stroke-width="0.75"/><path d="M264.37,276.368l-1.318,1.079L261.573,280l-1,3.356" transform="translate(-251.778 -271.361)" fill="none" stroke="#263238" stroke-linecap="round" stroke-linejoin="round" stroke-width="0.75"/><path d="M259.118,288.5s2.1,2.517,3.585,2.877a14,14,0,0,0,1.889-.959c.265-.232.667-.683,1.478-1.33" transform="translate(-251.161 -276.505)" fill="none" stroke="#263238" stroke-linecap="round" stroke-linejoin="round" stroke-width="0.75"/><path d="M263.14,287.656l.192-.679a4.437,4.437,0,0,0,1.885,0l.479.679A8.9,8.9,0,0,0,263.14,287.656Z" transform="translate(-252.866 -275.858)" fill="none" stroke="#263238" stroke-linecap="round" stroke-linejoin="round" stroke-width="0.75"/><path d="M266.6,283.233a3.4,3.4,0,0,0-.279,1.718" transform="translate(-254.21 -274.271)" fill="none" stroke="#263238" stroke-linecap="round" stroke-linejoin="round" stroke-width="0.75"/><path d="M267.931,286.977a4.014,4.014,0,0,0-1.384,3.437" transform="translate(-254.301 -275.858)" fill="none" stroke="#263238" stroke-linecap="round" stroke-linejoin="round" stroke-width="0.75"/><path d="M264.019,282.123l-.879.959v1.079" transform="translate(-252.866 -273.8)" fill="none" stroke="#263238" stroke-linecap="round" stroke-linejoin="round" stroke-width="0.75"/></g><g transform="translate(0 23.093)"><path d="M192.036,338.184s20.093.511,22.982,2.636c0,0-1.808-2.908,1.436-1.957,0,0,.224-24.666,4.586-25l1.452-5.614a.644.644,0,0,1,.96-.392,13.064,13.064,0,0,0,6.023,2.118.638.638,0,0,1,.626.644v4.811s2.237.559,2.125,3.8-2.157,32.344-5.849,35.492-29.643,1.583-29.643,1.583S190.358,350.153,192.036,338.184Z" transform="translate(-191.755 -307.76)" fill="#92e3a9"/><g clip-path="url(#p)"><path d="M199.433,356.829s6.171,9.757,15.919,8.835,6.884-4.6,8.4-6.036,6.333.7,8.8-17.469,7.594,12.77,7.594,12.77l-1.482,15.087-9.2,6.712-8.645,1.689-20.242,1.653-6.118-17.247Z" transform="translate(-192.896 -319.918)" opacity="0.2"/></g><path d="M192.036,338.184s20.093.511,22.982,2.636c0,0-1.808-2.908,1.436-1.957,0,0,.224-24.666,4.586-25l1.452-5.614a.644.644,0,0,1,.96-.392,13.064,13.064,0,0,0,6.023,2.118.638.638,0,0,1,.626.644v4.811s2.237.559,2.125,3.8-2.157,32.344-5.849,35.492-29.643,1.583-29.643,1.583S190.358,350.153,192.036,338.184Z" transform="translate(-191.755 -307.76)" fill="none" stroke="#263238" stroke-linecap="round" stroke-linejoin="round" stroke-width="0.75"/></g><path d="M236.125,369.889s1.454,1.118,2.349,4.586" transform="translate(-210.563 -311.003)" fill="none" stroke="#263238" stroke-linecap="round" stroke-linejoin="round" stroke-width="0.75"/><path d="M238.163,365.229a13.559,13.559,0,0,1,4.754,3.8" transform="translate(-211.427 -309.028)" fill="none" stroke="#263238" stroke-linecap="round" stroke-linejoin="round" stroke-width="0.75"/><path d="M245.306,319.711a13.222,13.222,0,0,0,5.7,1.789" transform="translate(-214.454 -289.733)" fill="none" stroke="#263238" stroke-linecap="round" stroke-linejoin="round" stroke-width="0.75"/></g><g transform="translate(13.478 51.889)"><path d="M123.048,408.7s-15.554-32.813-3.623-43.253,37.075-7.67,41.336-6.392,8.523,13.637,8.736,20.242,4.4,6.514-1.564,29.4Z" transform="translate(-114.923 -357.745)" fill="#92e3a9"/><g clip-path="url(#q)"><path d="M127.111,399.043s8.051-8.812,8.58-5.91-9.379,19.681.849,24.155,17.477-.479,23.2,0,8.222,3.937,14.084,4.286,4.6,8.658,4.6,8.658l-16.319,3.516H128.229l-12.272-3.037-3.389-5.979V411.309Z" transform="translate(-113.925 -372.497)" opacity="0.2"/></g><path d="M123.048,408.7s-15.554-32.813-3.623-43.253,37.075-7.67,41.336-6.392,8.523,13.637,8.736,20.242,4.4,6.514-1.564,29.4Z" transform="translate(-114.923 -357.745)" fill="none" stroke="#263238" stroke-linecap="round" stroke-linejoin="round" stroke-width="0.75"/></g><g transform="translate(36.945 67.529)"><path d="M155.655,399.008l9.482-3.1s3.942-6.272,5.966-7.87,3.3-2.129,5.327-1.172l3.409-.477s1.442-1.829,3.09-1.441,7.67,2.237,7.031,3.515-5.752-1.065-6.5-.426c0,0,1.678,3.01,1.678,4.847s.479,4.634-.559,4.634-1.918-1.161-1.838-2.658c0,0-.32,3.3-1.358,3.138a1.967,1.967,0,0,1-1.6-2.4s-2.4,7.431-8.47,7.351l-11.026,4.474S158.052,406.892,155.655,399.008Z" transform="translate(-155.655 -384.891)" fill="#fff" stroke="#263238" stroke-linecap="round" stroke-linejoin="round" stroke-width="0.75"/><path d="M186.583,397.539s1.438-2.877,1.039-4.234l2.077-.8s.879,1.2,1.518.879l-.32,1.638s-1.6,1.956-.719,3.075,2.158-1.437,2.877-2.157.879-3.888.32-4.9-2.62-.906-3.228-1.572" transform="translate(-168.765 -386.832)" fill="none" stroke="#263238" stroke-linecap="round" stroke-linejoin="round" stroke-width="0.75"/><path d="M198,388.3s1.811-.213,2.344.665a8.69,8.69,0,0,1,.959,4.022,26.606,26.606,0,0,1-.479,2.663" transform="translate(-173.605 -386.325)" fill="none" stroke="#263238" stroke-linecap="round" stroke-linejoin="round" stroke-width="0.75"/><line y1="1.778" x2="0.323" transform="translate(24.397 8.19)" fill="none" stroke="#263238" stroke-linecap="round" stroke-linejoin="round" stroke-width="0.75"/><path d="M200.88,388.537s1.029-.451,1.751,1.016" transform="translate(-174.825 -386.409)" fill="none" stroke="#263238" stroke-linecap="round" stroke-linejoin="round" stroke-width="0.75"/><path d="M193.683,397.662l-.913.367.457.877.294-.411Z" transform="translate(-171.387 -390.305)" fill="none" stroke="#263238" stroke-linecap="round" stroke-linejoin="round" stroke-width="0.75"/><path d="M177.106,411.429a5.12,5.12,0,0,0,2.344,2.13" transform="translate(-164.748 -396.14)" fill="none" stroke="#263238" stroke-linecap="round" stroke-linejoin="round" stroke-width="0.75"/></g><g transform="translate(38.223 38.179)"><path d="M160.964,336.4l-3.09,9.055s6.605,7.031,12.358,7.564l2.344,2.755,2.557-3.075-.639-3.942-1.033-1.665-.885-.288,1.811-4.972-5.784-7.884h-5.616Z" transform="translate(-157.874 -333.947)" fill="#fff"/><g clip-path="url(#r)"><path d="M177.665,341.831l-5.784-7.884h-5.616l-.659.8c.389,1.8,1.209,4.86,2.577,6.659,1.457,1.917,5.561,4.109,7.747,5.188Z" transform="translate(-161.151 -333.947)" fill="#263238" stroke="#263238" stroke-linecap="round" stroke-linejoin="round" stroke-width="0.75"/></g><path d="M160.964,336.4l-3.09,9.055s6.605,7.031,12.358,7.564l2.344,2.755,2.557-3.075-.639-3.942-1.033-1.665-.885-.288,1.811-4.972-5.784-7.884h-5.616Z" transform="translate(-157.874 -333.947)" fill="none" stroke="#263238" stroke-linecap="round" stroke-linejoin="round" stroke-width="0.75"/></g><path d="M164.757,316.2s1.066,6.57,3.942,8.7,13.21,6.058,15.128,4.2,3.835-7.823,4.262-10.913-.639-8.176-.426-11.279.426-8.323-3.835-9.921-19.818,6.114-19.818,6.114l-.956,5.925Z" transform="translate(-121.846 -280.009)" fill="#fff" stroke="#263238" stroke-linecap="round" stroke-linejoin="round" stroke-width="0.75"/><path d="M200.632,314.369s-.639,2.6,0,3.555c.433.649,1.562,2.215,2.246,3.158a.912.912,0,0,1-.216,1.281,8.613,8.613,0,0,0-2.314,2.114,2.49,2.49,0,0,0,0,.8" transform="translate(-137.639 -287.469)" fill="none" stroke="#263238" stroke-linecap="round" stroke-linejoin="round" stroke-width="0.75"/><path d="M196.234,335.632a4.242,4.242,0,0,1-5.776-.643" transform="translate(-133.463 -296.21)" fill="none" stroke="#263238" stroke-linecap="round" stroke-linejoin="round" stroke-width="0.75"/><path d="M186.537,314.8s1.265-2.8,5.72-1.358" transform="translate(-131.801 -286.902)" fill="none" stroke="#263238" stroke-linecap="round" stroke-linejoin="round" stroke-width="0.75"/><path d="M201.175,312.688a1.571,1.571,0,0,1,2.22,0" transform="translate(-138.006 -286.558)" fill="none" stroke="#263238" stroke-linecap="round" stroke-linejoin="round" stroke-width="0.75"/><path d="M193.476,317.149c.177.661.055,1.269-.273,1.357s-.738-.377-.915-1.039-.055-1.269.274-1.357S193.3,316.488,193.476,317.149Z" transform="translate(-134.204 -288.203)" fill="#263238"/><path d="M204.1,316.027c.128.6-.01,1.143-.309,1.206s-.646-.373-.774-.977.01-1.143.309-1.206S203.967,315.424,204.1,316.027Z" transform="translate(-138.764 -287.755)" fill="#263238"/><path d="M174.566,282.933s5.427-3.109,13.585,4.108c7.369,6.52-1.642,2.783-1.642,2.783s3.746,7-.247,8.437c-4.048,1.459-1.811-2.791-10.76-4.815,0,0,3.994,3.237,1.254,5.127-3.512,2.423-5.835-1.718-8.605-.759,0,0-1.49,8.2-4.474,9.588,0,0-2.9,11-6.726,10.293s.866-2.2-1.265-8.908-6.712-13.05-3.2-20.321S168.623,280.409,174.566,282.933Z" transform="translate(-116.824 -273.591)" fill="#263238" stroke="#263238" stroke-linecap="round" stroke-linejoin="round" stroke-width="0.75"/><g transform="translate(0 57.773)"><path d="M115.261,367.958c-3.009.048-5.732,1.161-7.031,3.1-4.749,7.085-10.653,20.242-14.489,28.977s-1.918,14.063,0,14.7,8.736,2.769,21.946-3.623,11.932-7.67,11.932-7.67l7.577-3.5a.428.428,0,0,0,.068-.739c-1.2-.865-3.633-3.307-3.8-8.987a.431.431,0,0,0-.588-.393l-7.091,2.859s-1.066-1.174-7.245,1.17c0,0,6.179-4.475,8.949-7.884,1.3-1.606,1.711-4.629,1.265-7.69" transform="translate(-91.527 -367.958)" fill="#92e3a9" stroke="#263238" stroke-linecap="round" stroke-linejoin="round" stroke-width="0.75"/><path d="M112.569,417.433c2.044-1.692,10.653-2.557,10.76-3.835s-7.245,1.811-7.138,0" transform="translate(-100.447 -387.168)" fill="none" stroke="#263238" stroke-linecap="round" stroke-linejoin="round" stroke-width="0.75"/><path d="M142.526,391.087s2.136,3.4,2.13,5.327,2.557-3.09,2.557-5.327" transform="translate(-113.145 -377.762)" fill="none" stroke="#263238" stroke-linecap="round" stroke-linejoin="round" stroke-width="0.75"/><path d="M148.254,413.278s-.213,2.557,2.131,6.818" transform="translate(-115.571 -387.169)" fill="none" stroke="#263238" stroke-linecap="round" stroke-linejoin="round" stroke-width="0.75"/></g><path d="M146.03,355.687s2.189-6.48,4.746-5.527,15.022,6.357,16.779,12.444c0,0-2.557-3.37-4.794,0S158.383,362.977,146.03,355.687Z" transform="translate(-114.63 -302.6)" fill="#92e3a9" stroke="#263238" stroke-linecap="round" stroke-linejoin="round" stroke-width="0.75"/><path d="M184.278,356.623a13.231,13.231,0,0,1-.885,8.681s1.918-2.462,4.155-.784,0-5.33-1.039-6.655a10.991,10.991,0,0,0-1.99-1.4A.154.154,0,0,0,184.278,356.623Z" transform="translate(-130.468 -305.3)" fill="#92e3a9" stroke="#263238" stroke-linecap="round" stroke-linejoin="round" stroke-width="0.75"/><path d="M183.175,356.261s-.666,2.122,0,3.389" transform="translate(-130.25 -305.226)" fill="none" stroke="#263238" stroke-linecap="round" stroke-linejoin="round" stroke-width="0.75"/><g transform="translate(43.919 64.598)"><path d="M1.031,0H26.585a0,0,0,0,1,0,0V2.344a0,0,0,0,1,0,0H1.313A1.313,1.313,0,0,1,0,1.031v0A1.031,1.031,0,0,1,1.031,0Z" transform="translate(0 38.779)" fill="#858585" stroke="#263238" stroke-linecap="round" stroke-linejoin="round" stroke-width="1"/><path d="M223.616,379.8h-3.244a2.3,2.3,0,0,0-2.2,1.655l-10.617,36.533a2.3,2.3,0,0,0,2.2,2.935h2.813Z" transform="translate(-184.588 -379.804)" fill="#263238" stroke="#263238" stroke-linecap="round" stroke-linejoin="round" stroke-width="0.75"/><path d="M265.811,420.926H211.7a2.3,2.3,0,0,1-2.2-2.935l10.617-36.533a2.3,2.3,0,0,1,2.2-1.655h54.114a2.3,2.3,0,0,1,2.2,2.936l-10.617,36.532A2.3,2.3,0,0,1,265.811,420.926Z" transform="translate(-185.411 -379.804)" fill="#858585" stroke="#263238" stroke-linecap="round" stroke-linejoin="round" stroke-width="1"/></g><path d="M149.238,333.618s-4.348,6.792-1.791,12.912.32,9.289-2.663,7-4.368-4.812-17.792-2.685l8.949-8.737,6.072-8.14,5.686-2.677Z" transform="translate(-106.56 -294.641)" fill="#263238" stroke="#263238" stroke-linecap="round" stroke-linejoin="round" stroke-width="0.75"/><g transform="translate(25.386 12.833)"><path d="M211.55,302.144a3.808,3.808,0,0,1,.533,2.036" transform="translate(-167.789 -295.12)" fill="none" stroke="#7f7f7f" stroke-linecap="round" stroke-linejoin="round" stroke-width="0.75"/><path d="M181.174,289.956c8.063-.131,13.139,2.3,15.784,4.826" transform="translate(-154.913 -289.951)" fill="none" stroke="#7f7f7f" stroke-linecap="round" stroke-linejoin="round" stroke-width="0.75"/><path d="M141.873,324.917a12.73,12.73,0,0,0,.376-4.633c-.639-7.191,5.114-4.751,6.392-13.881,1.157-8.264,2.533-14.721,12.461-16.03" transform="translate(-138.254 -290.13)" fill="none" stroke="#7f7f7f" stroke-linecap="round" stroke-linejoin="round" stroke-width="0.75"/><path d="M135.591,357.619a7.522,7.522,0,0,0,2.221-2.151" transform="translate(-135.591 -317.723)" fill="none" stroke="#7f7f7f" stroke-linecap="round" stroke-linejoin="round" stroke-width="0.75"/></g><g transform="translate(35.975 16.926)"><path d="M155.387,358.665a15.32,15.32,0,0,0,.9,2" transform="translate(-154.572 -323.171)" fill="none" stroke="#7f7f7f" stroke-linecap="round" stroke-linejoin="round" stroke-width="0.75"/><path d="M161.906,300.232c-3.924,3.449-.465,10.227-2.33,14.413-1.723,3.87-6.338,9.537-5.5,16.291" transform="translate(-153.972 -298.402)" fill="none" stroke="#7f7f7f" stroke-linecap="round" stroke-linejoin="round" stroke-width="0.75"/><path d="M184.11,302.742s-5.407-7.83-12.6-5.114" transform="translate(-161.407 -297.056)" fill="none" stroke="#7f7f7f" stroke-linecap="round" stroke-linejoin="round" stroke-width="0.75"/></g><g transform="translate(104.228 1.098)"><rect width="72.8" height="10.453" rx="4.417" fill="#fff"/><g clip-path="url(#s)"><rect width="72.8" height="10.453" rx="4.417" opacity="0.3"/></g><rect width="72.8" height="10.453" rx="4.417" fill="none" stroke="#263238" stroke-linecap="round" stroke-linejoin="round" stroke-width="0.75"/></g><g transform="translate(135.532 3.397)"><path d="M326.78,273.573h1.242c.843,0,1.257.467,1.257,1.326v.529c0,.859-.414,1.327-1.257,1.327h-.4v2.185h-.843Zm1.242,2.415c.268,0,.414-.122.414-.506v-.636c0-.383-.145-.506-.414-.506h-.4v1.648Z" transform="translate(-326.78 -273.573)" fill="#263238"/><path d="M331.92,273.573h.843v2.185h.905v-2.185h.843v5.366h-.843v-2.415h-.905v2.415h-.843Z" transform="translate(-328.959 -273.573)" fill="#263238"/><path d="M337.512,273.573h1.242c.843,0,1.257.467,1.257,1.326v.529c0,.859-.414,1.327-1.257,1.327h-.4v2.185h-.843Zm1.242,2.415c.268,0,.414-.122.414-.506v-.636c0-.383-.146-.506-.414-.506h-.4v1.648Z" transform="translate(-331.329 -273.573)" fill="#263238"/></g></g></g></g></g></svg>